# Blender 5.0.0
# www.blender.org
mtllib nominal.mtl
o nominal
v 1.520690 0.000000 -0.687043
v 1.520690 0.000000 0.687043
v -1.520691 0.000000 0.687043
v -1.520690 0.000000 -0.687043
v -1.520690 2.342839 -0.687043
v 1.520690 2.342839 -0.687043
v 1.520690 3.545502 0.687043
v -1.520691 3.545502 0.687043
v -1.520691 3.545502 -2.524993
v 1.520690 3.545502 -2.524993
v 1.520690 2.342839 -2.551171
v -1.520690 2.342839 -2.551171
vn -0.0000 -1.0000 -0.0000
vn -0.0000 -0.0000 -1.0000
vn -0.0000 1.0000 -0.0000
vn -0.0000 0.0218 -0.9998
vn 1.0000 -0.0000 -0.0000
vn -1.0000 -0.0000 -0.0000
vn -0.0000 -0.0000 1.0000
s 0
usemtl Piece
f 1//1 2//1 3//1 4//1
f 4//2 5//2 6//2 1//2
f 7//3 10//3 9//3 8//3
f 5//1 12//1 11//1 6//1
f 9//4 10//4 11//4 12//4
f 6//5 11//5 10//5 7//5
f 1//5 6//5 7//5 2//5
f 5//6 8//6 9//6 12//6
f 3//6 8//6 5//6 4//6
f 2//7 7//7 8//7 3//7
