# Blender 5.0.0
# www.blender.org
mtllib nominal.mtl
o nominal
v 0.769746 -2.000000 -1.000000
v 0.769746 -2.000000 1.000000
v -1.000000 -2.000000 1.000000
v -1.000000 -2.000000 -1.000000
v 0.769746 2.000000 1.000000
v 0.769746 2.000000 -1.000000
v -1.000000 2.000000 -1.000000
v -1.000000 2.000000 1.000000
v -1.000000 1.150243 1.000000
v -1.000000 1.150243 -1.000000
v -1.000000 -1.150243 -1.000000
v -1.000000 -1.150243 1.000000
v -3.491519 -1.150243 1.000000
v -3.491519 -1.150243 -1.000000
v -3.491519 1.150243 -1.000000
v -3.491519 1.150243 1.000000
vn -0.0000 -1.0000 -0.0000
vn 1.0000 -0.0000 -0.0000
vn -0.0000 1.0000 -0.0000
vn -1.0000 -0.0000 -0.0000
vn -0.0000 -0.0000 1.0000
vn -0.0000 -0.0000 -1.0000
s 0
usemtl piece
f 1//1 2//1 3//1 4//1
f 1//2 6//2 5//2 2//2
f 6//3 7//3 8//3 5//3
f 7//4 10//4 9//4 8//4
f 3//4 12//4 11//4 4//4
f 12//1 13//1 14//1 11//1
f 10//3 15//3 16//3 9//3
f 13//4 16//4 15//4 14//4
f 9//5 16//5 13//5 12//5
f 5//5 8//5 9//5
f 2//5 12//5 3//5
f 5//5 9//5 12//5 2//5
f 10//6 11//6 14//6 15//6
f 1//6 4//6 11//6
f 6//6 10//6 7//6
f 11//6 10//6 6//6 1//6
