# Blender 5.0.0
# www.blender.org
mtllib RS1.mtl
o RS1
v 1.077389 2.376372 -1.300000
v 1.077389 2.376372 1.300000
v -1.509601 2.116599 1.300000
v -1.509600 2.116599 -1.300000
v 1.208619 -1.807483 -1.300000
v 1.208619 -1.807483 1.300000
v -1.378371 -2.067255 1.300000
v -1.378371 -2.067255 -1.300000
v 1.794600 0.365576 -1.010539
v 1.794600 0.365576 1.010539
v -4.084868 -0.224810 1.010539
v -4.084867 -0.224810 -1.010539
vn -0.0999 0.9950 -0.0000
s 0
usemtl rref
f 1//1 4//1 3//1 2//1
f 5//1 8//1 7//1 6//1
f 9//1 12//1 11//1 10//1
