# Blender 5.0.0
# www.blender.org
mtllib ET.mtl
o ET_coaxialite
v -0.012169 0.578897 0.018834
v -0.014969 0.540713 0.011138
v 0.005793 0.658837 0.020117
v -0.005840 0.622100 0.014600
v -0.006074 0.578897 0.011869
v -0.008874 0.540713 0.004173
v 0.011887 0.658837 0.013152
v 0.000254 0.622100 0.007636
v 0.000254 0.622100 0.014600
v 0.011887 0.658837 0.020117
v -0.008874 0.540713 0.011138
v -0.006074 0.578897 0.018834
v -0.005840 0.622100 0.007636
v 0.005793 0.658837 0.013152
v -0.014969 0.540713 0.004173
v -0.012169 0.578897 0.011869
v -0.009004 0.600498 0.016717
v -0.002910 0.600498 0.009752
v -0.002910 0.600498 0.016717
v -0.009004 0.600498 0.009752
v -0.000289 0.640807 0.017525
v -0.013745 0.558483 0.013457
v -0.011176 0.589846 0.018404
v 0.008840 0.659442 0.020850
v -0.002793 0.622074 0.015808
v -0.009122 0.578680 0.019928
v -0.002793 0.622333 0.006584
v 0.008840 0.659562 0.012489
v -0.011921 0.539842 0.011687
v -0.011921 0.540241 0.003378
v -0.009122 0.579152 0.010456
v 0.006628 0.640375 0.009807
v -0.007254 0.560484 0.006975
v -0.005201 0.589865 0.011460
v -0.004624 0.578849 0.015351
v 0.001785 0.621681 0.011118
v -0.008002 0.540088 0.007656
v 0.012755 0.659468 0.016634
v -0.004256 0.589692 0.018067
v -0.007491 0.559125 0.013455
v 0.006935 0.639717 0.018276
v 0.005107 0.659759 0.016634
v -0.015738 0.539889 0.007656
v -0.006986 0.622477 0.011118
v -0.013442 0.578788 0.015351
v -0.010586 0.589698 0.010811
v -0.013996 0.559796 0.006846
v 0.000042 0.641037 0.010562
v -0.010508 0.600698 0.013235
v -0.001593 0.600295 0.013235
v -0.005957 0.600589 0.018000
v -0.005957 0.600362 0.008579
v -0.007754 0.589849 0.009963
v -0.012549 0.589823 0.014329
v -0.015592 0.558519 0.010273
v -0.001628 0.641681 0.013888
v 0.008510 0.640451 0.014010
v -0.006153 0.559354 0.010165
v -0.003366 0.589656 0.014565
v -0.010568 0.559838 0.005571
v -0.011830 0.538426 0.007232
v 0.003274 0.641322 0.009114
v -0.007650 0.589693 0.019620
v 0.003253 0.640753 0.019290
v -0.010548 0.558124 0.014424
v 0.008992 0.661199 0.016762
vn 0.3434 0.8815 0.3242
vn 0.3129 -0.1989 0.9287
vn 0.2821 -0.1517 0.9473
vn 0.3272 -0.2212 0.9187
vn 0.2401 -0.2111 0.9475
vn 0.2641 -0.2749 0.9245
vn 0.2402 -0.2116 0.9474
vn -0.3739 0.1370 -0.9173
vn -0.3435 -0.0349 -0.9385
vn -0.3390 -0.0401 -0.9399
vn -0.3719 0.1122 -0.9215
vn 0.3908 0.0240 0.9202
vn 0.3703 -0.1509 0.9166
vn 0.3724 -0.1294 0.9190
vn 0.3932 0.0328 0.9189
vn 0.2515 0.0688 -0.9654
vn 0.2329 0.1082 -0.9665
vn 0.2502 0.0716 -0.9656
vn 0.3330 -0.8808 -0.3367
vn 0.3410 0.1408 -0.9295
vn 0.4245 0.0670 -0.9029
vn 0.4267 0.0583 -0.9025
vn 0.3562 0.1629 -0.9201
vn 0.8820 -0.1676 -0.4405
vn 0.9130 -0.0478 -0.4052
vn 0.9165 -0.0376 -0.3983
vn 0.8813 -0.1726 -0.4398
vn 0.9467 -0.0114 -0.3219
vn 0.9547 -0.0448 -0.2942
vn 0.9453 -0.0063 -0.3261
vn 0.9108 -0.2153 -0.3523
vn 0.8792 -0.2560 -0.4018
vn 0.9020 -0.2273 -0.3670
vn -0.8579 0.3358 -0.3889
vn -0.8583 0.3319 -0.3914
vn -0.8600 0.3136 -0.4027
vn -0.9386 0.1205 -0.3232
vn -0.9353 0.1328 -0.3279
vn -0.9501 0.0708 -0.3039
vn -0.8985 0.0820 -0.4312
vn -0.8972 0.0853 -0.4333
vn -0.9154 0.1227 -0.3833
vn -0.9154 0.1221 -0.3836
vn -0.3245 -0.0567 -0.9442
vn 0.4428 -0.1443 -0.8850
vn 0.4411 -0.1510 -0.8847
vn -0.9266 0.1615 0.3397
vn -0.9258 0.1648 0.3403
vn -0.9241 0.0332 0.3806
vn -0.9273 0.0454 0.3715
vn 0.4254 -0.2109 -0.8801
vn -0.9092 0.2233 0.3514
vn -0.8893 0.1044 -0.4452
vn -0.9167 -0.0211 0.3991
vn -0.9197 -0.0197 0.3922
vn -0.9302 -0.0148 0.3669
vn -0.9087 0.2416 0.3405
vn -0.9088 0.2406 0.3409
vn -0.9113 0.2089 0.3548
vn -0.9050 0.2730 0.3262
vn -0.8557 0.3540 -0.3774
vn 0.9305 -0.1856 -0.3159
vn 0.9343 -0.2545 0.2498
vn 0.8996 -0.3223 0.2946
vn 0.9050 -0.3128 0.2883
vn 0.8645 -0.3783 0.3311
vn 0.9288 -0.1388 0.3435
vn 0.9272 -0.1462 0.3448
vn 0.9288 -0.1436 0.3416
vn 0.9277 -0.1410 0.3456
vn 0.9415 -0.1211 0.3144
vn 0.8726 -0.2283 -0.4318
vn 0.9477 -0.1000 0.3030
vn 0.9446 -0.1061 0.3106
vn 0.9450 -0.1052 0.3095
vn 0.3100 0.0966 -0.9458
vn -0.2934 0.1367 -0.9462
vn -0.3377 0.1992 -0.9199
vn -0.3384 0.2002 -0.9195
vn 0.3370 -0.9012 0.2726
vn -0.3098 -0.9078 0.2826
vn -0.3073 -0.8861 -0.3471
vn 0.2683 0.0319 -0.9628
vn -0.3758 0.2469 -0.8932
vn -0.3633 0.2513 -0.8972
vn -0.3575 0.2533 -0.8989
vn -0.3447 0.2576 -0.9027
vn 0.4028 0.0685 0.9127
vn -0.3462 0.2027 0.9160
vn -0.3372 0.1330 0.9320
vn -0.3380 0.1387 0.9309
vn -0.3291 -0.0813 0.9408
vn -0.3292 -0.0706 0.9416
vn 0.2150 -0.1468 0.9655
vn -0.3551 0.0072 0.9348
vn -0.3894 -0.0144 0.9210
vn -0.3778 -0.0070 0.9259
vn -0.4114 -0.0285 0.9110
vn -0.2902 -0.1681 0.9421
vn -0.2911 -0.1694 0.9416
vn -0.2559 -0.1162 0.9597
vn 0.3442 0.8880 -0.3049
vn -0.3051 0.8979 -0.3172
vn -0.3047 0.8909 0.3367
s 1
usemtl Material.004
f 66//1 24//1 10//1 38//1
f 65//2 29//3 11//3 40//4
f 64//5 25//6 9//6 41//7
f 16//8 46//9 53//10 31//11
f 63//12 26//13 12//14 39//15
f 62//16 28//17 7//17 32//18
f 61//19 30//19 6//19 37//19
f 60//20 31//21 5//22 33//23
f 59//24 35//25 5//26 34//27
f 58//28 37//29 6//29 33//30
f 57//31 36//32 8//32 32//33
f 56//34 48//35 13//36 44//36
f 55//37 47//38 15//39 43//39
f 54//40 46//41 16//42 45//43
f 46//9 20//44 52//44 53//10
f 31//21 53//45 34//46 5//22
f 23//47 54//48 45//49 1//50
f 53//45 52//51 18//51 34//46
f 17//52 49//52 54//48 23//47
f 49//53 20//53 46//41 54//40
f 22//54 55//55 43//56 2//56
f 1//50 45//49 55//55 22//54
f 45//43 16//42 47//38 55//37
f 21//57 56//58 44//59 4//59
f 3//60 42//60 56//58 21//57
f 42//61 14//61 48//35 56//34
f 38//62 57//31 32//33 7//62
f 10//63 41//64 57//65 38//63
f 41//64 9//66 36//66 57//65
f 35//25 58//28 33//30 5//26
f 12//67 40//68 58//69 35//70
f 40//68 11//71 37//71 58//69
f 50//72 59//24 34//27 18//72
f 19//73 39//74 59//75 50//73
f 39//74 12//67 35//70 59//75
f 30//76 60//20 33//23 6//76
f 15//77 47//78 60//79 30//77
f 47//78 16//8 31//11 60//79
f 29//80 61//80 37//80 11//80
f 2//81 43//81 61//81 29//81
f 43//82 15//82 30//82 61//82
f 27//83 62//16 32//18 8//83
f 13//84 48//85 62//86 27//84
f 48//85 14//87 28//87 62//86
f 51//88 63//12 39//15 19//88
f 17//89 23//90 63//91 51//89
f 23//90 1//92 26//93 63//91
f 24//94 64//5 41//7 10//94
f 3//95 21//96 64//97 24//95
f 21//96 4//98 25//98 64//97
f 26//13 65//2 40//4 12//14
f 1//92 22//99 65//100 26//93
f 22//99 2//101 29//101 65//100
f 28//102 66//102 38//102 7//102
f 14//103 42//103 66//103 28//103
f 42//104 3//104 24//104 66//104
