# Blender 5.0.0
# www.blender.org
mtllib ER3.mtl
o ER3
v 1.746559 -1.000000 1.747559
v -1.746559 -1.000000 1.747559
v 1.746558 1.000000 1.522069
v -1.859680 1.000000 1.747559
v 0.912368 -0.969195 1.734758
v 0.032300 -0.984834 1.712716
v -0.882914 -1.003056 1.780312
v 0.844908 0.959516 1.593561
v -0.091470 0.970947 1.615401
v -1.002244 1.022935 1.682480
v 1.761038 -0.486190 1.635774
v 1.801923 0.012905 1.629283
v 1.789867 0.515958 1.583489
v -1.818318 -0.463811 1.720214
v -1.770791 0.026356 1.737176
v -1.816592 0.522768 1.718800
v 0.922282 -0.482201 1.728821
v 0.882117 0.002925 1.668067
v 0.888771 0.495997 1.663032
v -0.005288 -0.471648 1.717264
v 0.006151 0.017672 1.653049
v -0.031227 0.501358 1.663152
v -0.913841 -0.477646 1.753783
v -0.904387 0.026834 1.707976
v -0.972145 0.509527 1.727340
v 1.540087 -0.989516 1.746859
v 1.332785 -0.980144 1.745160
v 1.123822 -0.973000 1.741460
v 0.697706 -0.969456 1.724912
v 0.479573 -0.972958 1.715199
v 0.257821 -0.978488 1.709756
v -0.196709 -0.990921 1.726482
v -0.427203 -0.996238 1.746517
v -0.656749 -1.000408 1.766550
v -1.534282 -1.001949 1.763586
v -1.320551 -1.003424 1.776478
v -1.103913 -1.003951 1.783098
v 1.523531 0.987612 1.543825
v 1.299550 0.976131 1.564028
v 1.073661 0.966463 1.581124
v 0.612750 0.956099 1.600563
v 0.378291 0.956643 1.604463
v 0.143046 0.961481 1.608371
v -0.323903 0.984768 1.627810
v -0.553541 1.000244 1.644455
v -0.779838 1.014069 1.663343
v -1.648096 1.010899 1.732380
v -1.435402 1.019732 1.716765
v -1.220488 1.024433 1.700277
v 1.747765 -0.870478 1.712410
v 1.749938 -0.741383 1.680142
v 1.754040 -0.613145 1.653636
v 1.771345 -0.360748 1.628200
v 1.783162 -0.236258 1.627617
v 1.794138 -0.111960 1.629489
v 1.804723 0.138828 1.623503
v 1.802981 0.265218 1.612810
v 1.797696 0.391215 1.598905
v 1.758350 0.880311 1.537306
v 1.769757 0.760093 1.552590
v 1.780391 0.638818 1.567969
v -1.773561 -0.862879 1.737152
v -1.796939 -0.726987 1.728174
v -1.813066 -0.593554 1.722052
v -1.810831 -0.338475 1.723353
v -1.795787 -0.216224 1.729218
v -1.780126 -0.095225 1.734821
v -1.772864 0.149847 1.734302
v -1.783995 0.274549 1.728246
v -1.799974 0.399257 1.722061
v -1.851140 0.882194 1.736633
v -1.841707 0.763786 1.727202
v -1.830489 0.644178 1.720759
v 0.860039 0.845632 1.616136
v 0.873503 0.730950 1.636628
v 0.883636 0.614671 1.652955
v 1.565025 0.509403 1.609738
v 1.340011 0.503475 1.633441
v 1.114651 0.498797 1.652054
v 0.881199 0.126707 1.663997
v 0.884397 0.250962 1.664718
v 0.888119 0.374465 1.665854
v 1.568456 0.008805 1.643635
v 1.336395 0.005346 1.656125
v 1.107147 0.003172 1.664890
v 0.913217 -0.361454 1.714406
v 0.901112 -0.240733 1.696710
v 0.889551 -0.119464 1.679881
v 1.557226 -0.485965 1.666701
v 1.351064 -0.485431 1.694562
v 1.140199 -0.484279 1.716290
v 0.918985 -0.847073 1.737917
v 0.923948 -0.725100 1.739219
v 0.925599 -0.603426 1.736806
v -0.075997 0.854441 1.632503
v -0.060688 0.737578 1.647539
v -0.045710 0.620002 1.658444
v 0.662077 0.495468 1.665133
v 0.433783 0.496688 1.662333
v 0.202984 0.498903 1.659913
v 0.002409 0.139122 1.650804
v -0.005946 0.260526 1.655009
v -0.017597 0.381425 1.660760
v 0.661992 0.004990 1.664816
v 0.444569 0.008732 1.658384
v 0.226930 0.013257 1.653038
v -0.004040 -0.347528 1.702238
v 0.000284 -0.225061 1.683087
v 0.004681 -0.103557 1.664971
v 0.695926 -0.479093 1.730519
v 0.463593 -0.475679 1.725476
v 0.228713 -0.472888 1.719217
v 0.019103 -0.855074 1.719656
v 0.007427 -0.725900 1.724275
v -0.001210 -0.597896 1.724251
v -0.998545 0.892378 1.698899
v -0.993316 0.762703 1.713236
v -0.985026 0.634792 1.723410
v -0.269005 0.503472 1.675598
v -0.507491 0.505352 1.693859
v -0.743074 0.507278 1.712815
v -0.916084 0.147573 1.709954
v -0.934024 0.267248 1.716765
v -0.954084 0.387389 1.724022
v -0.219714 0.021247 1.661370
v -0.448710 0.023908 1.675706
v -0.677911 0.025741 1.692445
v -0.910580 -0.348754 1.740167
v -0.905127 -0.221497 1.725773
v -0.901668 -0.096194 1.713931
v -0.235761 -0.472527 1.723435
v -0.463177 -0.474646 1.734722
v -0.688787 -0.476766 1.746409
v -0.894631 -0.870883 1.776250
v -0.904754 -0.739038 1.771160
v -0.911689 -0.607849 1.764014
v -1.611807 0.519081 1.726906
v -1.404492 0.515544 1.732623
v -1.192115 0.512309 1.733564
v -1.557722 0.026884 1.732887
v -1.343241 0.027248 1.727394
v -1.125934 0.027286 1.719492
v -1.591765 -0.468819 1.734249
v -1.365385 -0.473208 1.746027
v -1.139353 -0.476357 1.753291
v 1.557688 0.631112 1.595485
v 1.547749 0.750972 1.579324
v 1.536074 0.869600 1.561893
v 1.334391 0.624073 1.620493
v 1.324918 0.742585 1.603769
v 1.312877 0.859706 1.584527
v 1.109905 0.618370 1.640485
v 1.100444 0.735666 1.623633
v 1.087838 0.851444 1.603259
v 1.570111 0.134217 1.638354
v 1.570604 0.260108 1.631062
v 1.569165 0.385497 1.621583
v 1.336991 0.130239 1.651314
v 1.339319 0.255617 1.647204
v 1.341089 0.380392 1.641884
v 1.106856 0.127525 1.660492
v 1.110219 0.252362 1.659126
v 1.113922 0.376511 1.657433
v 1.560678 -0.362145 1.656995
v 1.563690 -0.238851 1.651190
v 1.566277 -0.115422 1.647373
v 1.348465 -0.363054 1.682893
v 1.343801 -0.240855 1.672243
v 1.339102 -0.118250 1.663143
v 1.133160 -0.362986 1.702996
v 1.123081 -0.241678 1.688256
v 1.113298 -0.119808 1.674684
v 1.544657 -0.862885 1.723188
v 1.549113 -0.736552 1.700970
v 1.553340 -0.610813 1.681656
v 1.339913 -0.855989 1.732206
v 1.346018 -0.732025 1.719374
v 1.350077 -0.608442 1.706785
v 1.131901 -0.850486 1.737702
v 1.138386 -0.728106 1.732931
v 1.141684 -0.605992 1.726132
v 0.655074 0.613436 1.656659
v 0.643503 0.728995 1.641611
v 0.628888 0.842949 1.622182
v 0.424050 0.614297 1.655417
v 0.410769 0.729659 1.642028
v 0.395121 0.843526 1.624324
v 0.190484 0.616677 1.654317
v 0.175854 0.732626 1.642473
v 0.159805 0.847358 1.626464
v 0.660718 0.128171 1.660991
v 0.662294 0.251788 1.663017
v 0.663740 0.374626 1.666021
v 0.442939 0.131302 1.654843
v 0.441746 0.254229 1.657649
v 0.439269 0.376397 1.661810
v 0.224592 0.135239 1.649973
v 0.219938 0.257428 1.653389
v 0.212794 0.378942 1.658348
v 0.687711 -0.358229 1.715587
v 0.677601 -0.237702 1.696311
v 0.668169 -0.116851 1.677714
v 0.458209 -0.354120 1.710443
v 0.452746 -0.233373 1.690678
v 0.447950 -0.112677 1.671540
v 0.226896 -0.350197 1.704239
v 0.226866 -0.228806 1.684655
v 0.227314 -0.107920 1.665808
v 0.700056 -0.846239 1.732167
v 0.701287 -0.723273 1.737081
v 0.700283 -0.600807 1.737312
v 0.476094 -0.847654 1.724073
v 0.472409 -0.722744 1.730426
v 0.468311 -0.598621 1.731734
v 0.248608 -0.850778 1.718337
v 0.240170 -0.723593 1.724432
v 0.233280 -0.597454 1.725554
v -0.284091 0.623751 1.671235
v -0.298010 0.744069 1.660372
v -0.311151 0.864412 1.645174
v -0.522135 0.627627 1.689531
v -0.534095 0.751143 1.678327
v -0.544265 0.875487 1.662537
v -0.756795 0.631388 1.708526
v -0.766633 0.757716 1.697312
v -0.773883 0.885523 1.681482
v -0.225723 0.142256 1.660356
v -0.237589 0.262862 1.665736
v -0.252840 0.383217 1.672490
v -0.457294 0.144614 1.676050
v -0.472139 0.264552 1.682609
v -0.489964 0.384528 1.690255
v -0.688637 0.146340 1.693909
v -0.705612 0.265910 1.701122
v -0.725027 0.385779 1.709088
v -0.232886 -0.346839 1.708122
v -0.226658 -0.222917 1.689374
v -0.220969 -0.100356 1.672139
v -0.459822 -0.347477 1.719234
v -0.453517 -0.222027 1.701134
v -0.448425 -0.098247 1.685074
v -0.685502 -0.348448 1.731329
v -0.679829 -0.221763 1.714542
v -0.675915 -0.096953 1.700198
v -0.211002 -0.859967 1.730962
v -0.223482 -0.729554 1.733346
v -0.232339 -0.600227 1.731535
v -0.440643 -0.864736 1.748107
v -0.452304 -0.733676 1.747882
v -0.460408 -0.603499 1.744025
v -0.668844 -0.868627 1.765175
v -0.679306 -0.737194 1.762336
v -0.686498 -0.606458 1.756569
v -1.204683 0.637662 1.730550
v -1.212558 0.765311 1.722987
v -1.217305 0.894489 1.712390
v -1.417233 0.640084 1.731002
v -1.425677 0.765916 1.727372
v -1.431256 0.892608 1.722403
v -1.625046 0.642206 1.726995
v -1.634713 0.765185 1.728181
v -1.641999 0.888066 1.730098
v -1.136896 0.148448 1.721110
v -1.154431 0.268816 1.726089
v -1.174263 0.389675 1.731288
v -1.352036 0.149060 1.727921
v -1.368055 0.270605 1.729882
v -1.386980 0.392545 1.731906
v -1.563395 0.149497 1.731835
v -1.577155 0.272540 1.729986
v -1.594720 0.395804 1.728092
v -1.135598 -0.347637 1.742526
v -1.129086 -0.220731 1.731887
v -1.124353 -0.095727 1.723500
v -1.360654 -0.345274 1.739260
v -1.351936 -0.219491 1.733499
v -1.344406 -0.095453 1.729344
v -1.585737 -0.342082 1.732244
v -1.574046 -0.217937 1.732109
v -1.562704 -0.095307 1.732703
v -1.117331 -0.870974 1.776897
v -1.128926 -0.738428 1.770195
v -1.136874 -0.606745 1.762493
v -1.337487 -0.869272 1.768611
v -1.352133 -0.735759 1.760846
v -1.362196 -0.603524 1.753284
v -1.555948 -0.866374 1.754370
v -1.574696 -0.731716 1.745907
v -1.587608 -0.598892 1.738949
vn 0.0338 0.2230 0.9742
vn -0.0762 0.0580 0.9954
vn 0.0948 0.1476 0.9845
vn 0.0535 -0.0515 0.9972
vn -0.0257 -0.0191 0.9995
vn 0.0329 -0.0486 0.9983
vn 0.0317 0.0323 0.9990
vn 0.0367 0.1959 0.9799
vn 0.0481 0.1528 0.9871
vn 0.0785 0.1223 0.9894
vn 0.1431 0.0904 0.9856
vn 0.0653 0.0284 0.9975
vn 0.1090 0.1207 0.9867
vn -0.0591 0.0102 0.9982
vn 0.0154 0.0024 0.9999
vn -0.0347 -0.0003 0.9994
vn 0.0309 0.0932 0.9952
vn 0.0019 0.0640 0.9979
vn 0.0277 0.0549 0.9981
vn 0.0102 0.0887 0.9960
vn 0.0192 0.0577 0.9981
vn 0.0332 0.0145 0.9993
vn 0.0170 0.0892 0.9959
vn 0.0583 0.0200 0.9981
vn 0.0473 0.0083 0.9988
vn 0.0288 0.1851 0.9823
vn 0.0150 0.1064 0.9942
vn -0.0044 0.0355 0.9994
vn -0.0377 -0.0532 0.9979
vn -0.0313 -0.0675 0.9972
vn -0.0063 -0.0646 0.9979
vn 0.0680 -0.0263 0.9973
vn 0.0808 -0.0039 0.9967
vn 0.0678 0.0161 0.9976
vn -0.0686 0.0560 0.9961
vn -0.0472 0.0513 0.9976
vn -0.0123 0.0439 0.9990
vn 0.0904 0.1590 0.9831
vn 0.0782 0.1798 0.9806
vn 0.0595 0.1932 0.9794
vn 0.0188 0.1880 0.9820
vn 0.0145 0.1741 0.9846
vn 0.0250 0.1606 0.9867
vn 0.0719 0.1502 0.9860
vn 0.0856 0.1479 0.9853
vn 0.0873 0.1402 0.9863
vn 0.0540 -0.0168 0.9984
vn 0.0576 0.0438 0.9974
vn 0.0662 0.0906 0.9937
vn 0.0574 0.2148 0.9750
vn 0.1021 0.1893 0.9766
vn 0.1331 0.1469 0.9802
vn 0.1310 0.0387 0.9906
vn 0.1058 0.0102 0.9943
vn 0.0804 0.0081 0.9967
vn 0.0653 0.0574 0.9962
vn 0.0776 0.0831 0.9935
vn 0.0948 0.1041 0.9900
vn 0.1008 0.1464 0.9841
vn 0.1109 0.1418 0.9837
vn 0.1145 0.1332 0.9844
vn -0.0773 0.0548 0.9955
vn -0.0771 0.0459 0.9960
vn -0.0717 0.0311 0.9969
vn -0.0389 -0.0109 0.9992
vn -0.0147 -0.0227 0.9996
vn 0.0062 -0.0185 0.9998
vn 0.0088 0.0244 0.9997
vn -0.0088 0.0310 0.9995
vn -0.0269 0.0211 0.9994
vn 0.0338 -0.0487 0.9982
vn -0.0013 -0.0396 0.9992
vn -0.0259 -0.0231 0.9994
vn 0.0368 0.1866 0.9818
vn 0.0361 0.1587 0.9867
vn 0.0335 0.1129 0.9930
vn 0.1041 0.1104 0.9884
vn 0.0888 0.0903 0.9919
vn 0.0625 0.0717 0.9955
vn 0.0025 0.0144 0.9999
vn 0.0092 -0.0061 0.9999
vn 0.0188 0.0083 0.9998
vn 0.0614 0.0345 0.9975
vn 0.0493 0.0474 0.9977
vn 0.0289 0.0575 0.9979
vn 0.0281 0.1316 0.9909
vn 0.0189 0.1400 0.9900
vn 0.0085 0.1153 0.9933
vn 0.1354 0.0936 0.9864
vn 0.1127 0.0964 0.9889
vn 0.0763 0.0964 0.9924
vn -0.0134 -0.0122 0.9998
vn 0.0086 0.0087 0.9999
vn 0.0242 0.0453 0.9987
vn 0.0446 0.1439 0.9886
vn 0.0404 0.1167 0.9923
vn 0.0366 0.0719 0.9967
vn -0.0016 0.0399 0.9992
vn -0.0110 0.0271 0.9996
vn 0.0020 0.0183 0.9998
vn 0.0225 -0.0076 0.9997
vn 0.0260 -0.0392 0.9989
vn 0.0297 -0.0305 0.9991
vn -0.0201 0.0670 0.9975
vn -0.0253 0.0671 0.9974
vn -0.0109 0.0640 0.9979
vn 0.0102 0.1373 0.9905
vn 0.0126 0.1502 0.9886
vn 0.0160 0.1217 0.9924
vn -0.0070 0.0890 0.9960
vn -0.0232 0.0864 0.9960
vn -0.0162 0.0864 0.9961
vn 0.0285 -0.0403 0.9988
vn 0.0200 -0.0147 0.9997
vn 0.0136 0.0297 0.9995
vn 0.0719 0.1158 0.9907
vn 0.0595 0.0945 0.9937
vn 0.0508 0.0578 0.9970
vn 0.0642 0.0140 0.9978
vn 0.0783 0.0134 0.9968
vn 0.0723 0.0115 0.9973
vn 0.0591 -0.0272 0.9979
vn 0.0548 -0.0471 0.9974
vn 0.0495 -0.0338 0.9982
vn 0.0500 0.0491 0.9975
vn 0.0675 0.0394 0.9969
vn 0.0698 0.0295 0.9971
vn 0.0258 0.1052 0.9941
vn 0.0385 0.0997 0.9943
vn 0.0507 0.0701 0.9962
vn 0.0386 0.0924 0.9950
vn 0.0509 0.0955 0.9941
vn 0.0429 0.0954 0.9945
vn 0.0263 0.0357 0.9990
vn 0.0183 0.0463 0.9988
vn 0.0145 0.0650 0.9978
vn -0.0289 0.0014 0.9996
vn -0.0121 0.0025 0.9999
vn 0.0147 0.0049 0.9999
vn 0.0184 0.0039 0.9998
vn 0.0271 0.0070 0.9996
vn 0.0411 0.0123 0.9991
vn -0.0542 0.0252 0.9982
vn -0.0391 0.0528 0.9978
vn -0.0145 0.0748 0.9971
vn 0.1093 0.1318 0.9852
vn 0.1058 0.1476 0.9834
vn 0.0962 0.1566 0.9830
vn 0.0936 0.1282 0.9873
vn 0.0908 0.1572 0.9834
vn 0.0829 0.1744 0.9812
vn 0.0674 0.1222 0.9902
vn 0.0667 0.1617 0.9846
vn 0.0623 0.1853 0.9807
vn 0.0615 0.0495 0.9969
vn 0.0736 0.0673 0.9950
vn 0.0904 0.0877 0.9920
vn 0.0499 0.0354 0.9981
vn 0.0612 0.0377 0.9974
vn 0.0765 0.0564 0.9955
vn 0.0297 0.0235 0.9993
vn 0.0391 0.0127 0.9992
vn 0.0519 0.0294 0.9982
vn 0.1244 0.0580 0.9905
vn 0.1005 0.0354 0.9943
vn 0.0760 0.0279 0.9967
vn 0.1035 0.0915 0.9904
vn 0.0829 0.0811 0.9933
vn 0.0617 0.0655 0.9959
vn 0.0700 0.1167 0.9907
vn 0.0547 0.1169 0.9916
vn 0.0385 0.0954 0.9947
vn 0.0526 0.1772 0.9828
vn 0.0957 0.1593 0.9826
vn 0.1256 0.1308 0.9834
vn 0.0369 0.1039 0.9939
vn 0.0764 0.1009 0.9920
vn 0.1036 0.0986 0.9897
vn 0.0136 0.0383 0.9992
vn 0.0457 0.0490 0.9978
vn 0.0681 0.0692 0.9953
vn 0.0052 0.1003 0.9949
vn 0.0110 0.1485 0.9889
vn 0.0164 0.1781 0.9839
vn -0.0043 0.0869 0.9962
vn 0.0029 0.1348 0.9909
vn 0.0105 0.1644 0.9863
vn 0.0075 0.0765 0.9970
vn 0.0138 0.1229 0.9923
vn 0.0207 0.1514 0.9883
vn -0.0199 0.0079 0.9998
vn -0.0156 -0.0191 0.9997
vn -0.0089 -0.0074 0.9999
vn -0.0247 0.0028 0.9997
vn -0.0218 -0.0282 0.9994
vn -0.0170 -0.0190 0.9997
vn -0.0092 -0.0021 1.0000
vn -0.0064 -0.0346 0.9994
vn -0.0026 -0.0266 0.9996
vn -0.0071 0.1382 0.9904
vn -0.0110 0.1519 0.9883
vn -0.0163 0.1260 0.9919
vn -0.0222 0.1403 0.9899
vn -0.0225 0.1565 0.9874
vn -0.0239 0.1299 0.9912
vn -0.0153 0.1398 0.9901
vn -0.0136 0.1556 0.9877
vn -0.0121 0.1283 0.9917
vn -0.0314 -0.0441 0.9985
vn -0.0201 -0.0170 0.9997
vn -0.0116 0.0289 0.9995
vn -0.0301 -0.0577 0.9979
vn -0.0275 -0.0284 0.9992
vn -0.0252 0.0212 0.9995
vn -0.0086 -0.0553 0.9984
vn -0.0127 -0.0268 0.9996
vn -0.0155 0.0220 0.9996
vn 0.0661 0.0714 0.9953
vn 0.0679 0.1154 0.9910
vn 0.0698 0.1416 0.9875
vn 0.0797 0.0710 0.9943
vn 0.0815 0.1143 0.9901
vn 0.0839 0.1397 0.9866
vn 0.0743 0.0672 0.9950
vn 0.0784 0.1087 0.9910
vn 0.0842 0.1327 0.9876
vn 0.0543 -0.0140 0.9984
vn 0.0583 -0.0435 0.9974
vn 0.0617 -0.0325 0.9976
vn 0.0717 -0.0209 0.9972
vn 0.0747 -0.0478 0.9961
vn 0.0768 -0.0345 0.9964
vn 0.0728 -0.0262 0.9970
vn 0.0731 -0.0501 0.9961
vn 0.0723 -0.0357 0.9967
vn 0.0379 0.1336 0.9903
vn 0.0407 0.1419 0.9890
vn 0.0453 0.1120 0.9927
vn 0.0513 0.1287 0.9904
vn 0.0557 0.1320 0.9897
vn 0.0619 0.1007 0.9930
vn 0.0467 0.1203 0.9916
vn 0.0545 0.1189 0.9914
vn 0.0632 0.0872 0.9942
vn 0.0625 -0.0192 0.9979
vn 0.0519 0.0027 0.9986
vn 0.0435 0.0412 0.9982
vn 0.0748 0.0020 0.9972
vn 0.0638 0.0204 0.9978
vn 0.0553 0.0527 0.9971
vn 0.0619 0.0209 0.9979
vn 0.0517 0.0356 0.9980
vn 0.0448 0.0615 0.9971
vn 0.0201 0.0416 0.9989
vn 0.0345 0.0692 0.9970
vn 0.0550 0.0853 0.9948
vn -0.0052 0.0192 0.9998
vn 0.0144 0.0324 0.9994
vn 0.0422 0.0404 0.9983
vn -0.0210 -0.0078 0.9997
vn 0.0023 -0.0141 0.9999
vn 0.0356 -0.0172 0.9992
vn 0.0391 -0.0211 0.9990
vn 0.0296 -0.0353 0.9989
vn 0.0192 -0.0259 0.9995
vn 0.0227 -0.0071 0.9997
vn 0.0089 -0.0137 0.9999
vn -0.0057 -0.0106 0.9999
vn 0.0124 0.0129 0.9998
vn -0.0039 0.0152 0.9999
vn -0.0211 0.0104 0.9997
vn -0.0005 0.0812 0.9967
vn 0.0171 0.0728 0.9972
vn 0.0329 0.0487 0.9983
vn -0.0213 0.0487 0.9986
vn -0.0000 0.0385 0.9993
vn 0.0184 0.0238 0.9995
vn -0.0343 0.0096 0.9994
vn -0.0106 -0.0016 0.9999
vn 0.0095 -0.0037 0.9999
vn -0.0166 0.0458 0.9988
vn -0.0215 0.0515 0.9984
vn -0.0215 0.0619 0.9979
vn -0.0501 0.0515 0.9974
vn -0.0524 0.0517 0.9973
vn -0.0494 0.0527 0.9974
vn -0.0704 0.0542 0.9960
vn -0.0710 0.0486 0.9963
vn -0.0663 0.0392 0.9970
s 1
usemtl ER
f 146//146 147//147 150//150 149//149
f 147//147 148//148 151//151 150//150
f 149//149 150//150 153//153 152//152
f 150//150 151//151 154//154 153//153
f 13//13 61//61 146//146 77//77
f 61//61 60//60 147//147 146//146
f 60//60 59//59 148//148 147//147
f 59//59 3//3 38//38 148//148
f 148//148 38//38 39//39 151//151
f 151//151 39//39 40//40 154//154
f 154//154 40//40 8//8 74//74
f 153//153 154//154 74//74 75//75
f 152//152 153//153 75//75 76//76
f 79//79 152//152 76//76 19//19
f 78//78 149//149 152//152 79//79
f 77//77 146//146 149//149 78//78
f 155//155 156//156 159//159 158//158
f 156//156 157//157 160//160 159//159
f 158//158 159//159 162//162 161//161
f 159//159 160//160 163//163 162//162
f 12//12 56//56 155//155 83//83
f 56//56 57//57 156//156 155//155
f 57//57 58//58 157//157 156//156
f 58//58 13//13 77//77 157//157
f 157//157 77//77 78//78 160//160
f 160//160 78//78 79//79 163//163
f 163//163 79//79 19//19 82//82
f 162//162 163//163 82//82 81//81
f 161//161 162//162 81//81 80//80
f 85//85 161//161 80//80 18//18
f 84//84 158//158 161//161 85//85
f 83//83 155//155 158//158 84//84
f 164//164 165//165 168//168 167//167
f 165//165 166//166 169//169 168//168
f 167//167 168//168 171//171 170//170
f 168//168 169//169 172//172 171//171
f 11//11 53//53 164//164 89//89
f 53//53 54//54 165//165 164//164
f 54//54 55//55 166//166 165//165
f 55//55 12//12 83//83 166//166
f 166//166 83//83 84//84 169//169
f 169//169 84//84 85//85 172//172
f 172//172 85//85 18//18 88//88
f 171//171 172//172 88//88 87//87
f 170//170 171//171 87//87 86//86
f 91//91 170//170 86//86 17//17
f 90//90 167//167 170//170 91//91
f 89//89 164//164 167//167 90//90
f 173//173 174//174 177//177 176//176
f 174//174 175//175 178//178 177//177
f 176//176 177//177 180//180 179//179
f 177//177 178//178 181//181 180//180
f 1//1 50//50 173//173 26//26
f 50//50 51//51 174//174 173//173
f 51//51 52//52 175//175 174//174
f 52//52 11//11 89//89 175//175
f 175//175 89//89 90//90 178//178
f 178//178 90//90 91//91 181//181
f 181//181 91//91 17//17 94//94
f 180//180 181//181 94//94 93//93
f 179//179 180//180 93//93 92//92
f 28//28 179//179 92//92 5//5
f 27//27 176//176 179//179 28//28
f 26//26 173//173 176//176 27//27
f 182//182 183//183 186//186 185//185
f 183//183 184//184 187//187 186//186
f 185//185 186//186 189//189 188//188
f 186//186 187//187 190//190 189//189
f 19//19 76//76 182//182 98//98
f 76//76 75//75 183//183 182//182
f 75//75 74//74 184//184 183//183
f 74//74 8//8 41//41 184//184
f 184//184 41//41 42//42 187//187
f 187//187 42//42 43//43 190//190
f 190//190 43//43 9//9 95//95
f 189//189 190//190 95//95 96//96
f 188//188 189//189 96//96 97//97
f 100//100 188//188 97//97 22//22
f 99//99 185//185 188//188 100//100
f 98//98 182//182 185//185 99//99
f 191//191 192//192 195//195 194//194
f 192//192 193//193 196//196 195//195
f 194//194 195//195 198//198 197//197
f 195//195 196//196 199//199 198//198
f 18//18 80//80 191//191 104//104
f 80//80 81//81 192//192 191//191
f 81//81 82//82 193//193 192//192
f 82//82 19//19 98//98 193//193
f 193//193 98//98 99//99 196//196
f 196//196 99//99 100//100 199//199
f 199//199 100//100 22//22 103//103
f 198//198 199//199 103//103 102//102
f 197//197 198//198 102//102 101//101
f 106//106 197//197 101//101 21//21
f 105//105 194//194 197//197 106//106
f 104//104 191//191 194//194 105//105
f 200//200 201//201 204//204 203//203
f 201//201 202//202 205//205 204//204
f 203//203 204//204 207//207 206//206
f 204//204 205//205 208//208 207//207
f 17//17 86//86 200//200 110//110
f 86//86 87//87 201//201 200//200
f 87//87 88//88 202//202 201//201
f 88//88 18//18 104//104 202//202
f 202//202 104//104 105//105 205//205
f 205//205 105//105 106//106 208//208
f 208//208 106//106 21//21 109//109
f 207//207 208//208 109//109 108//108
f 206//206 207//207 108//108 107//107
f 112//112 206//206 107//107 20//20
f 111//111 203//203 206//206 112//112
f 110//110 200//200 203//203 111//111
f 209//209 210//210 213//213 212//212
f 210//210 211//211 214//214 213//213
f 212//212 213//213 216//216 215//215
f 213//213 214//214 217//217 216//216
f 5//5 92//92 209//209 29//29
f 92//92 93//93 210//210 209//209
f 93//93 94//94 211//211 210//210
f 94//94 17//17 110//110 211//211
f 211//211 110//110 111//111 214//214
f 214//214 111//111 112//112 217//217
f 217//217 112//112 20//20 115//115
f 216//216 217//217 115//115 114//114
f 215//215 216//216 114//114 113//113
f 31//31 215//215 113//113 6//6
f 30//30 212//212 215//215 31//31
f 29//29 209//209 212//212 30//30
f 218//218 219//219 222//222 221//221
f 219//219 220//220 223//223 222//222
f 221//221 222//222 225//225 224//224
f 222//222 223//223 226//226 225//225
f 22//22 97//97 218//218 119//119
f 97//97 96//96 219//219 218//218
f 96//96 95//95 220//220 219//219
f 95//95 9//9 44//44 220//220
f 220//220 44//44 45//45 223//223
f 223//223 45//45 46//46 226//226
f 226//226 46//46 10//10 116//116
f 225//225 226//226 116//116 117//117
f 224//224 225//225 117//117 118//118
f 121//121 224//224 118//118 25//25
f 120//120 221//221 224//224 121//121
f 119//119 218//218 221//221 120//120
f 227//227 228//228 231//231 230//230
f 228//228 229//229 232//232 231//231
f 230//230 231//231 234//234 233//233
f 231//231 232//232 235//235 234//234
f 21//21 101//101 227//227 125//125
f 101//101 102//102 228//228 227//227
f 102//102 103//103 229//229 228//228
f 103//103 22//22 119//119 229//229
f 229//229 119//119 120//120 232//232
f 232//232 120//120 121//121 235//235
f 235//235 121//121 25//25 124//124
f 234//234 235//235 124//124 123//123
f 233//233 234//234 123//123 122//122
f 127//127 233//233 122//122 24//24
f 126//126 230//230 233//233 127//127
f 125//125 227//227 230//230 126//126
f 236//236 237//237 240//240 239//239
f 237//237 238//238 241//241 240//240
f 239//239 240//240 243//243 242//242
f 240//240 241//241 244//244 243//243
f 20//20 107//107 236//236 131//131
f 107//107 108//108 237//237 236//236
f 108//108 109//109 238//238 237//237
f 109//109 21//21 125//125 238//238
f 238//238 125//125 126//126 241//241
f 241//241 126//126 127//127 244//244
f 244//244 127//127 24//24 130//130
f 243//243 244//244 130//130 129//129
f 242//242 243//243 129//129 128//128
f 133//133 242//242 128//128 23//23
f 132//132 239//239 242//242 133//133
f 131//131 236//236 239//239 132//132
f 245//245 246//246 249//249 248//248
f 246//246 247//247 250//250 249//249
f 248//248 249//249 252//252 251//251
f 249//249 250//250 253//253 252//252
f 6//6 113//113 245//245 32//32
f 113//113 114//114 246//246 245//245
f 114//114 115//115 247//247 246//246
f 115//115 20//20 131//131 247//247
f 247//247 131//131 132//132 250//250
f 250//250 132//132 133//133 253//253
f 253//253 133//133 23//23 136//136
f 252//252 253//253 136//136 135//135
f 251//251 252//252 135//135 134//134
f 34//34 251//251 134//134 7//7
f 33//33 248//248 251//251 34//34
f 32//32 245//245 248//248 33//33
f 254//254 255//255 258//258 257//257
f 255//255 256//256 259//259 258//258
f 257//257 258//258 261//261 260//260
f 258//258 259//259 262//262 261//261
f 25//25 118//118 254//254 139//139
f 118//118 117//117 255//255 254//254
f 117//117 116//116 256//256 255//255
f 116//116 10//10 49//49 256//256
f 256//256 49//49 48//48 259//259
f 259//259 48//48 47//47 262//262
f 262//262 47//47 4//4 71//71
f 261//261 262//262 71//71 72//72
f 260//260 261//261 72//72 73//73
f 137//137 260//260 73//73 16//16
f 138//138 257//257 260//260 137//137
f 139//139 254//254 257//257 138//138
f 263//263 264//264 267//267 266//266
f 264//264 265//265 268//268 267//267
f 266//266 267//267 270//270 269//269
f 267//267 268//268 271//271 270//270
f 24//24 122//122 263//263 142//142
f 122//122 123//123 264//264 263//263
f 123//123 124//124 265//265 264//264
f 124//124 25//25 139//139 265//265
f 265//265 139//139 138//138 268//268
f 268//268 138//138 137//137 271//271
f 271//271 137//137 16//16 70//70
f 270//270 271//271 70//70 69//69
f 269//269 270//270 69//69 68//68
f 140//140 269//269 68//68 15//15
f 141//141 266//266 269//269 140//140
f 142//142 263//263 266//266 141//141
f 272//272 273//273 276//276 275//275
f 273//273 274//274 277//277 276//276
f 275//275 276//276 279//279 278//278
f 276//276 277//277 280//280 279//279
f 23//23 128//128 272//272 145//145
f 128//128 129//129 273//273 272//272
f 129//129 130//130 274//274 273//273
f 130//130 24//24 142//142 274//274
f 274//274 142//142 141//141 277//277
f 277//277 141//141 140//140 280//280
f 280//280 140//140 15//15 67//67
f 279//279 280//280 67//67 66//66
f 278//278 279//279 66//66 65//65
f 143//143 278//278 65//65 14//14
f 144//144 275//275 278//278 143//143
f 145//145 272//272 275//275 144//144
f 281//281 282//282 285//285 284//284
f 282//282 283//283 286//286 285//285
f 284//284 285//285 288//288 287//287
f 285//285 286//286 289//289 288//288
f 7//7 134//134 281//281 37//37
f 134//134 135//135 282//282 281//281
f 135//135 136//136 283//283 282//282
f 136//136 23//23 145//145 283//283
f 283//283 145//145 144//144 286//286
f 286//286 144//144 143//143 289//289
f 289//289 143//143 14//14 64//64
f 288//288 289//289 64//64 63//63
f 287//287 288//288 63//63 62//62
f 35//35 287//287 62//62 2//2
f 36//36 284//284 287//287 35//35
f 37//37 281//281 284//284 36//36
