# Blender 5.0.0
# www.blender.org
mtllib ET.mtl
o Rail.007
v -2.011925 -0.292951 -0.029031
v -2.002592 -0.264066 -0.032922
v -1.999974 -0.236211 -0.026517
v -2.000365 -0.208221 -0.025208
v -2.000956 -0.180451 -0.025969
v -1.997160 -0.152533 -0.030979
v -2.001946 -0.124501 -0.024650
v -2.020677 -0.292951 -0.021738
v -2.011344 -0.264066 -0.025629
v -2.008726 -0.236211 -0.019225
v -2.009117 -0.208221 -0.017916
v -2.001923 -0.096153 -0.028557
v -1.991996 -0.068135 -0.020673
v -1.992528 -0.040448 -0.014554
v -1.985323 -0.012571 -0.018193
v -1.985066 0.015532 -0.016942
v -1.983224 0.043424 -0.015340
v -1.982290 0.071412 -0.014274
v -1.977013 0.100398 -0.017538
v -2.009708 -0.180451 -0.018676
v -2.005912 -0.152533 -0.023686
v -2.010698 -0.124501 -0.017358
v -2.010675 -0.096153 -0.021265
v -2.000748 -0.068135 -0.013381
v -2.001280 -0.040448 -0.007261
v -1.994075 -0.012571 -0.010900
v -1.993819 0.015532 -0.009650
v -1.991976 0.043424 -0.008047
v -1.991042 0.071412 -0.006981
v -1.985765 0.100398 -0.010245
v -1.983135 0.138521 -0.001542
v -1.983135 0.138521 -0.008834
v -1.985765 0.100398 -0.017538
v -1.991042 0.071412 -0.014274
v -1.991976 0.043424 -0.015340
v -1.993819 0.015532 -0.016942
v -1.994075 -0.012571 -0.018193
v -2.001280 -0.040448 -0.014554
v -2.000748 -0.068135 -0.020673
v -2.010675 -0.096153 -0.028557
v -2.010698 -0.124501 -0.024650
v -2.005912 -0.152533 -0.030979
v -2.009708 -0.180451 -0.025969
v -2.009117 -0.208221 -0.025208
v -2.008726 -0.236211 -0.026517
v -2.011344 -0.264066 -0.032922
v -2.020677 -0.292951 -0.029031
v -1.974383 0.138521 -0.008834
v -2.013407 -0.292951 -0.021738
v -2.004075 -0.264066 -0.025629
v -2.001456 -0.236211 -0.019225
v -2.001847 -0.208221 -0.017916
v -2.002439 -0.180451 -0.018676
v -1.998643 -0.152533 -0.023686
v -2.003429 -0.124501 -0.017358
v -2.003405 -0.096153 -0.021265
v -1.993479 -0.068135 -0.013381
v -1.994011 -0.040448 -0.007261
v -1.986805 -0.012571 -0.010900
v -1.986549 0.015532 -0.009650
v -1.984707 0.043424 -0.008047
v -1.983772 0.071412 -0.006981
v -1.978496 0.100398 -0.010245
v -1.975865 0.138521 -0.001542
vn 0.6979 -0.3123 -0.6446
vn 0.7441 -0.1041 -0.6599
vn 0.8071 0.0424 -0.5889
vn 0.7839 0.0201 -0.6206
vn 0.7741 -0.1135 -0.6228
vn 0.7585 0.0240 -0.6512
vn 0.7991 0.1008 -0.5926
vn -0.7025 0.3131 0.6391
vn -0.7115 0.1275 0.6910
vn -0.6763 -0.0785 0.7325
vn -0.6979 -0.0189 0.7160
vn 0.6831 -0.0458 -0.7289
vn 0.8101 -0.0057 -0.5862
vn 0.7866 -0.0746 -0.6130
vn 0.7695 -0.1188 -0.6275
vn 0.7672 0.0046 -0.6414
vn 0.7796 -0.0094 -0.6263
vn 0.7718 -0.1114 -0.6261
vn 0.7440 -0.0451 -0.6666
vn -0.7049 0.1065 0.7012
vn -0.7195 -0.0303 0.6938
vn -0.6848 -0.0796 0.7244
vn -0.7754 0.1108 0.6217
vn -0.6634 -0.0996 0.7416
vn -0.6973 0.0434 0.7155
vn -0.6896 0.1282 0.7127
vn -0.7150 -0.0080 0.6991
vn -0.7012 0.0002 0.7129
vn -0.7018 0.0963 0.7059
vn -0.7308 0.0606 0.6799
vn -0.6384 -0.1292 0.7587
vn -0.7313 0.1994 -0.6522
vn -0.6510 0.1155 -0.7503
vn -0.7363 0.0587 -0.6741
vn -0.7039 0.0693 -0.7070
vn -0.7108 0.0616 -0.7007
vn -0.6552 0.0468 -0.7540
vn -0.7661 0.1238 -0.6307
vn -0.6420 0.3009 -0.7051
vn -0.6889 0.1448 -0.7102
vn -0.7638 -0.0450 -0.6438
vn -0.6273 0.0096 -0.7787
vn -0.7411 -0.0213 -0.6710
vn -0.7147 -0.0061 -0.6994
vn -0.7130 0.1277 -0.6895
vn -0.6272 0.1503 -0.7642
vn -0.7795 0.1706 -0.6027
vn 0.8389 0.0655 -0.5404
vn 0.5213 -0.0537 0.8517
vn 0.6762 -0.1874 0.7125
vn 0.6255 -0.1253 0.7701
vn 0.6264 0.0033 0.7795
vn 0.5999 0.0524 0.7984
vn 0.7070 -0.0013 0.7073
vn 0.5785 0.0067 0.8156
vn 0.6188 -0.1727 0.7663
vn 0.6471 -0.2654 0.7148
vn 0.5612 -0.0951 0.8222
vn 0.6737 -0.0653 0.7361
vn 0.6259 -0.0637 0.7773
vn 0.6331 -0.0678 0.7711
vn 0.5988 -0.0300 0.8004
vn 0.6725 -0.1334 0.7279
vn 0.5933 -0.2179 0.7749
s 1
usemtl Material.002
f 19//19 33//33 32//32 48//48
f 13//13 39//39 38//38 14//14
f 18//18 34//34 33//33 19//19
f 5//5 43//43 42//42 6//6
f 17//17 35//35 34//34 18//18
f 6//6 42//42 41//41 7//7
f 1//1 47//47 46//46 2//2
f 16//16 36//36 35//35 17//17
f 2//2 46//46 45//45 3//3
f 3//3 45//45 44//44 4//4
f 14//14 38//38 37//37 15//15
f 12//12 40//40 39//39 13//13
f 15//15 37//37 36//36 16//16
f 4//4 44//44 43//43 5//5
f 7//7 41//41 40//40 12//12
f 45//45 10//10 11//11 44//44
f 35//35 28//28 29//29 34//34
f 40//40 23//23 24//24 39//39
f 42//42 21//21 22//22 41//41
f 38//38 25//25 26//26 37//37
f 41//41 22//22 23//23 40//40
f 46//46 9//9 10//10 45//45
f 43//43 20//20 21//21 42//42
f 47//47 8//8 9//9 46//46
f 44//44 11//11 20//20 43//43
f 36//36 27//27 28//28 35//35
f 33//33 30//30 31//31 32//32
f 37//37 26//26 27//27 36//36
f 39//39 24//24 25//25 38//38
f 34//34 29//29 30//30 33//33
f 25//25 24//24 57//57 58//58
f 22//22 21//21 54//54 55//55
f 26//26 25//25 58//58 59//59
f 24//24 23//23 56//56 57//57
f 10//10 9//9 50//50 51//51
f 31//31 30//30 63//63 64//64
f 9//9 8//8 49//49 50//50
f 28//28 27//27 60//60 61//61
f 23//23 22//22 55//55 56//56
f 30//30 29//29 62//62 63//63
f 11//11 10//10 51//51 52//52
f 29//29 28//28 61//61 62//62
f 21//21 20//20 53//53 54//54
f 27//27 26//26 59//59 60//60
f 20//20 11//11 52//52 53//53
f 2//2 50//50 49//49 1//1
f 3//3 51//51 50//50 2//2
f 4//4 52//52 51//51 3//3
f 5//5 53//53 52//52 4//4
f 6//6 54//54 53//53 5//5
f 7//7 55//55 54//54 6//6
f 12//12 56//56 55//55 7//7
f 13//13 57//57 56//56 12//12
f 14//14 58//58 57//57 13//13
f 15//15 59//59 58//58 14//14
f 16//16 60//60 59//59 15//15
f 17//17 61//61 60//60 16//16
f 18//18 62//62 61//61 17//17
f 19//19 63//63 62//62 18//18
f 48//48 64//64 63//63 19//19
