# Blender 5.0.0
# www.blender.org
mtllib nominal.mtl
o nominal
v -2.577532 -0.000000 -1.000000
v -2.577532 -0.195090 -0.980785
v -2.577532 -0.382684 -0.923880
v -2.577532 -0.555570 -0.831470
v -2.577532 -0.707107 -0.707107
v -2.577532 -0.831470 -0.555570
v -2.577532 -0.923880 -0.382683
v -2.577532 -0.980785 -0.195090
v -2.577532 -1.000000 -0.000000
v -2.577532 -0.980785 0.195090
v -2.577532 -0.923880 0.382683
v -2.577532 -0.831470 0.555570
v -2.577532 -0.707107 0.707107
v -2.577532 -0.555570 0.831470
v -2.577532 -0.382683 0.923880
v -2.577532 -0.195090 0.980785
v -2.577532 0.000000 1.000000
v -2.577532 0.195091 0.980785
v -2.577532 0.382684 0.923879
v -2.577532 0.555571 0.831469
v -2.577532 0.707107 0.707106
v -2.577532 0.831470 0.555570
v -2.577532 0.923880 0.382683
v -2.577532 0.980785 0.195089
v -2.577532 1.000000 -0.000001
v -2.577532 0.980785 -0.195091
v -2.577532 0.923879 -0.382684
v -2.577532 0.831469 -0.555571
v -2.577532 0.707106 -0.707108
v -2.577532 0.555569 -0.831470
v -2.577532 0.382682 -0.923880
v -2.577532 0.195089 -0.980786
v 2.577532 -0.000002 -1.000000
v 2.577532 -0.195092 -0.980785
v 2.577532 -0.382685 -0.923879
v 2.577532 -0.555572 -0.831469
v 2.577532 -0.707108 -0.707105
v 2.577532 -0.831471 -0.555569
v 2.577532 -0.923880 -0.382682
v 2.577532 -0.980786 -0.195088
v 2.577532 -1.000000 0.000002
v 2.577532 -0.980785 0.195092
v 2.577532 -0.923879 0.382685
v 2.577532 -0.831469 0.555571
v 2.577532 -0.707106 0.707107
v 2.577532 -0.555570 0.831470
v 2.577532 -0.382683 0.923880
v 2.577532 -0.195091 0.980785
v 2.577532 -0.000001 1.000000
v 2.577532 0.195089 0.980786
v 2.577532 0.382682 0.923880
v 2.577532 0.555569 0.831471
v 2.577532 0.707105 0.707109
v 2.577532 0.831468 0.555573
v 2.577532 0.923878 0.382686
v 2.577532 0.980785 0.195094
v 2.577532 1.000000 0.000004
v 2.577532 0.980786 -0.195086
v 2.577532 0.923881 -0.382679
v 2.577532 0.831473 -0.555566
v 2.577532 0.707111 -0.707103
v 2.577532 0.555575 -0.831466
v 2.577532 0.382690 -0.923877
v 2.577532 0.195097 -0.980784
v -2.577532 -0.000000 0.000000
v 2.577532 0.000000 0.000000
v -0.859177 -0.195091 -0.980785
v 0.859177 -0.195091 -0.980785
v -0.859177 -0.000001 -1.000000
v 0.859177 -0.000001 -1.000000
v -0.859177 -0.382684 -0.923879
v 0.859177 -0.382684 -0.923879
v -0.859177 -0.555571 -0.831469
v 0.859177 -0.555571 -0.831469
v -0.859177 -0.707107 -0.707106
v 0.859177 -0.707108 -0.707106
v -0.859177 -0.831470 -0.555570
v 0.859177 -0.831470 -0.555569
v -0.859177 -0.923880 -0.382683
v 0.859177 -0.923880 -0.382682
v -0.859177 -0.980785 -0.195090
v 0.859177 -0.980786 -0.195089
v -0.859177 -1.000000 0.000001
v 0.859177 -1.000000 0.000001
v -0.859177 -0.980785 0.195091
v 0.859177 -0.980785 0.195092
v -0.859177 -0.923879 0.382684
v 0.859177 -0.923879 0.382684
v -0.859177 -0.831469 0.555570
v 0.859177 -0.831469 0.555571
v -0.859177 -0.707107 0.707107
v 0.859177 -0.707106 0.707107
v -0.859177 -0.555570 0.831470
v 0.859177 -0.555570 0.831470
v -0.859177 -0.382683 0.923880
v 0.859177 -0.382683 0.923880
v -0.859177 -0.195090 0.980785
v 0.859177 -0.195091 0.980785
v -0.859177 -0.000000 1.000000
v 0.859177 -0.000000 1.000000
v -0.859177 0.195090 0.980785
v 0.859177 0.195090 0.980785
v -0.859177 0.382683 0.923880
v 0.859177 0.382683 0.923880
v -0.859177 0.555570 0.831470
v 0.859177 0.555569 0.831470
v -0.859177 0.707106 0.707107
v 0.859177 0.707106 0.707108
v -0.859177 0.831469 0.555571
v 0.859177 0.831469 0.555572
v -0.859177 0.923879 0.382684
v 0.859177 0.923879 0.382685
v -0.859177 0.980785 0.195091
v 0.859177 0.980785 0.195092
v -0.859177 1.000000 0.000001
v 0.859177 1.000000 0.000002
v -0.859177 0.980785 -0.195090
v 0.859177 0.980786 -0.195088
v -0.859177 0.923880 -0.382683
v 0.859177 0.923881 -0.382681
v -0.859177 0.831470 -0.555569
v 0.859177 0.831471 -0.555568
v -0.859177 0.707107 -0.707106
v 0.859177 0.707109 -0.707104
v -0.859177 0.555571 -0.831469
v 0.859177 0.555573 -0.831468
v -0.859177 0.382684 -0.923879
v 0.859177 0.382687 -0.923878
v -0.859177 0.195092 -0.980785
v 0.859177 0.195094 -0.980784
v 0.859177 0.334462 -1.681418
v -0.859177 0.334457 -1.681419
v 0.859177 0.656063 -1.583860
v -0.859177 0.656059 -1.583862
v 0.859177 0.952452 -1.425435
v -0.859177 0.952449 -1.425438
v 0.859177 1.212240 -1.212232
v -0.859177 1.212237 -1.212235
v 0.859177 1.425441 -0.952443
v -0.859177 1.425439 -0.952446
v 0.859177 1.583864 -0.656053
v -0.859177 1.583862 -0.656056
v 0.859177 1.681420 -0.334451
v -0.859177 1.681419 -0.334454
v 0.859177 1.714360 0.000004
v -0.859177 1.714360 0.000001
v 0.859177 1.681418 0.334458
v -0.859177 1.681419 0.334456
v 0.859177 1.583861 0.656060
v -0.859177 1.583861 0.656057
v 0.859177 1.425437 0.952449
v -0.859177 1.425438 0.952448
v 0.859177 1.212234 1.212237
v -0.859177 1.212235 1.212235
v 0.859177 0.952446 1.425439
v -0.859177 0.952447 1.425438
v 0.859177 0.656056 1.583862
v -0.859177 0.656057 1.583862
v 0.859177 0.334454 1.681419
v -0.859177 0.334455 1.681418
v 0.859177 -0.000001 1.714359
v -0.859177 -0.000000 1.714359
v 0.859177 -0.334455 1.681418
v -0.859177 -0.334455 1.681418
v 0.859177 -0.656057 1.583862
v -0.859177 -0.656057 1.583862
v 0.859177 -0.952447 1.425438
v -0.859177 -0.952447 1.425438
v 0.859177 -1.212235 1.212235
v -0.859177 -1.212235 1.212235
v 0.859177 -1.425437 0.952448
v -0.859177 -1.425438 0.952447
v 0.859177 -1.583861 0.656058
v -0.859177 -1.583862 0.656057
v 0.859177 -1.681419 0.334457
v -0.859177 -1.681419 0.334455
v 0.859177 -1.714360 0.000002
v -0.859177 -1.714360 0.000001
v 0.859177 -1.681419 -0.334453
v -0.859177 -1.681419 -0.334454
v 0.859177 -1.583863 -0.656055
v -0.859177 -1.583863 -0.656057
v 0.859177 -1.425439 -0.952446
v -0.859177 -1.425439 -0.952447
v 0.859177 -1.212237 -1.212234
v -0.859177 -1.212236 -1.212235
v 0.859177 -0.952449 -1.425437
v -0.859177 -0.952448 -1.425438
v 0.859177 -0.656059 -1.583862
v -0.859177 -0.656058 -1.583862
v 0.859177 -0.000002 -1.714360
v -0.859177 -0.000001 -1.714360
v 0.859177 -0.334457 -1.681419
v -0.859177 -0.334456 -1.681419
vn -1.0000 -0.0000 -0.0000
vn 1.0000 -0.0000 -0.0000
vn -0.0000 -0.0000 -1.0000
vn -0.0000 -0.1951 -0.9808
vn -0.0000 -0.3827 -0.9239
vn -0.0000 -0.5556 -0.8315
vn -0.0000 -0.7071 -0.7071
vn -0.0000 -0.8315 -0.5556
vn -0.0000 -0.9239 -0.3827
vn -0.0000 -0.9808 -0.1951
vn -0.0000 -1.0000 -0.0000
vn -0.0000 -0.9808 0.1951
vn -0.0000 -0.9239 0.3827
vn -0.0000 -0.8315 0.5556
vn -0.0000 -0.7071 0.7071
vn -0.0000 -0.5556 0.8315
vn -0.0000 -0.3827 0.9239
vn -0.0000 -0.1951 0.9808
vn -0.0000 -0.0000 1.0000
vn -0.0000 0.1951 0.9808
vn -0.0000 0.3827 0.9239
vn -0.0000 0.5556 0.8315
vn -0.0000 0.7071 0.7071
vn -0.0000 0.8315 0.5556
vn -0.0000 0.9239 0.3827
vn -0.0000 0.9808 0.1951
vn -0.0000 1.0000 -0.0000
vn -0.0000 0.9808 -0.1951
vn -0.0000 0.9239 -0.3827
vn -0.0000 0.8315 -0.5556
vn -0.0000 0.7071 -0.7071
vn -0.0000 0.5556 -0.8315
vn -0.0000 0.3827 -0.9239
vn -0.0000 0.1951 -0.9808
s 1
usemtl piece
f 65//1 1//1 2//1
f 66//2 34//2 33//2
f 65//1 2//1 3//1
f 66//2 35//2 34//2
f 65//1 3//1 4//1
f 66//2 36//2 35//2
f 65//1 4//1 5//1
f 66//2 37//2 36//2
f 65//1 5//1 6//1
f 66//2 38//2 37//2
f 65//1 6//1 7//1
f 66//2 39//2 38//2
f 65//1 7//1 8//1
f 66//2 40//2 39//2
f 65//1 8//1 9//1
f 66//2 41//2 40//2
f 65//1 9//1 10//1
f 66//2 42//2 41//2
f 65//1 10//1 11//1
f 66//2 43//2 42//2
f 65//1 11//1 12//1
f 66//2 44//2 43//2
f 65//1 12//1 13//1
f 66//2 45//2 44//2
f 65//1 13//1 14//1
f 66//2 46//2 45//2
f 65//1 14//1 15//1
f 66//2 47//2 46//2
f 65//1 15//1 16//1
f 66//2 48//2 47//2
f 65//1 16//1 17//1
f 66//2 49//2 48//2
f 65//1 17//1 18//1
f 66//2 50//2 49//2
f 65//1 18//1 19//1
f 66//2 51//2 50//2
f 65//1 19//1 20//1
f 66//2 52//2 51//2
f 65//1 20//1 21//1
f 66//2 53//2 52//2
f 65//1 21//1 22//1
f 66//2 54//2 53//2
f 65//1 22//1 23//1
f 66//2 55//2 54//2
f 65//1 23//1 24//1
f 66//2 56//2 55//2
f 65//1 24//1 25//1
f 66//2 57//2 56//2
f 65//1 25//1 26//1
f 66//2 58//2 57//2
f 65//1 26//1 27//1
f 66//2 59//2 58//2
f 65//1 27//1 28//1
f 66//2 60//2 59//2
f 65//1 28//1 29//1
f 66//2 61//2 60//2
f 65//1 29//1 30//1
f 66//2 62//2 61//2
f 65//1 30//1 31//1
f 66//2 63//2 62//2
f 65//1 31//1 32//1
f 66//2 64//2 63//2
f 32//1 1//1 65//1
f 66//2 33//2 64//2
f 1//3 69//3 67//4 2//4
f 70//3 33//3 34//4 68//4
f 2//4 67//4 71//5 3//5
f 68//4 34//4 35//5 72//5
f 3//5 71//5 73//6 4//6
f 72//5 35//5 36//6 74//6
f 4//6 73//6 75//7 5//7
f 74//6 36//6 37//7 76//7
f 5//7 75//7 77//8 6//8
f 76//7 37//7 38//8 78//8
f 6//8 77//8 79//9 7//9
f 78//8 38//8 39//9 80//9
f 7//9 79//9 81//10 8//10
f 80//9 39//9 40//10 82//10
f 8//10 81//10 83//11 9//11
f 82//10 40//10 41//11 84//11
f 9//11 83//11 85//12 10//12
f 84//11 41//11 42//12 86//12
f 10//12 85//12 87//13 11//13
f 86//12 42//12 43//13 88//13
f 11//13 87//13 89//14 12//14
f 88//13 43//13 44//14 90//14
f 12//14 89//14 91//15 13//15
f 90//14 44//14 45//15 92//15
f 13//15 91//15 93//16 14//16
f 92//15 45//15 46//16 94//16
f 14//16 93//16 95//17 15//17
f 94//16 46//16 47//17 96//17
f 15//17 95//17 97//18 16//18
f 96//17 47//17 48//18 98//18
f 16//18 97//18 99//19 17//19
f 98//18 48//18 49//19 100//19
f 17//19 99//19 101//20 18//20
f 100//19 49//19 50//20 102//20
f 18//20 101//20 103//21 19//21
f 102//20 50//20 51//21 104//21
f 19//21 103//21 105//22 20//22
f 104//21 51//21 52//22 106//22
f 20//22 105//22 107//23 21//23
f 106//22 52//22 53//23 108//23
f 21//23 107//23 109//24 22//24
f 108//23 53//23 54//24 110//24
f 22//24 109//24 111//25 23//25
f 110//24 54//24 55//25 112//25
f 23//25 111//25 113//26 24//26
f 112//25 55//25 56//26 114//26
f 24//26 113//26 115//27 25//27
f 114//26 56//26 57//27 116//27
f 25//27 115//27 117//28 26//28
f 116//27 57//27 58//28 118//28
f 26//28 117//28 119//29 27//29
f 118//28 58//28 59//29 120//29
f 27//29 119//29 121//30 28//30
f 120//29 59//29 60//30 122//30
f 28//30 121//30 123//31 29//31
f 122//30 60//30 61//31 124//31
f 29//31 123//31 125//32 30//32
f 124//31 61//31 62//32 126//32
f 30//32 125//32 127//33 31//33
f 126//32 62//32 63//33 128//33
f 31//33 127//33 129//34 32//34
f 128//33 63//33 64//34 130//34
f 33//3 70//3 130//34 64//34
f 69//3 1//3 32//34 129//34
f 69//1 129//1 132//1 192//1
f 130//2 70//2 191//2 131//2
f 128//2 130//2 131//2 133//2
f 129//1 127//1 134//1 132//1
f 126//2 128//2 133//2 135//2
f 127//1 125//1 136//1 134//1
f 124//2 126//2 135//2 137//2
f 125//1 123//1 138//1 136//1
f 122//2 124//2 137//2 139//2
f 123//1 121//1 140//1 138//1
f 120//2 122//2 139//2 141//2
f 121//1 119//1 142//1 140//1
f 118//2 120//2 141//2 143//2
f 119//1 117//1 144//1 142//1
f 116//2 118//2 143//2 145//2
f 117//1 115//1 146//1 144//1
f 114//2 116//2 145//2 147//2
f 115//1 113//1 148//1 146//1
f 112//2 114//2 147//2 149//2
f 113//1 111//1 150//1 148//1
f 110//2 112//2 149//2 151//2
f 111//1 109//1 152//1 150//1
f 108//2 110//2 151//2 153//2
f 109//1 107//1 154//1 152//1
f 106//2 108//2 153//2 155//2
f 107//1 105//1 156//1 154//1
f 104//2 106//2 155//2 157//2
f 105//1 103//1 158//1 156//1
f 102//2 104//2 157//2 159//2
f 103//1 101//1 160//1 158//1
f 100//2 102//2 159//2 161//2
f 101//1 99//1 162//1 160//1
f 98//2 100//2 161//2 163//2
f 99//1 97//1 164//1 162//1
f 96//2 98//2 163//2 165//2
f 97//1 95//1 166//1 164//1
f 94//2 96//2 165//2 167//2
f 95//1 93//1 168//1 166//1
f 92//2 94//2 167//2 169//2
f 93//1 91//1 170//1 168//1
f 90//2 92//2 169//2 171//2
f 91//1 89//1 172//1 170//1
f 88//2 90//2 171//2 173//2
f 89//1 87//1 174//1 172//1
f 86//2 88//2 173//2 175//2
f 87//1 85//1 176//1 174//1
f 84//2 86//2 175//2 177//2
f 85//1 83//1 178//1 176//1
f 82//2 84//2 177//2 179//2
f 83//1 81//1 180//1 178//1
f 80//2 82//2 179//2 181//2
f 81//1 79//1 182//1 180//1
f 78//2 80//2 181//2 183//2
f 79//1 77//1 184//1 182//1
f 76//2 78//2 183//2 185//2
f 77//1 75//1 186//1 184//1
f 74//2 76//2 185//2 187//2
f 75//1 73//1 188//1 186//1
f 72//2 74//2 187//2 189//2
f 73//1 71//1 190//1 188//1
f 68//2 72//2 189//2 193//2
f 71//1 67//1 194//1 190//1
f 70//2 68//2 193//2 191//2
f 67//1 69//1 192//1 194//1
f 146//27 145//27 143//28 144//28
f 144//28 143//28 141//29 142//29
f 142//29 141//29 139//30 140//30
f 140//30 139//30 137//31 138//31
f 138//31 137//31 135//32 136//32
f 136//32 135//32 133//33 134//33
f 134//33 133//33 131//34 132//34
f 192//3 132//34 131//34 191//3
f 194//4 192//3 191//3 193//4
f 194//4 193//4 189//5 190//5
f 190//5 189//5 187//6 188//6
f 188//6 187//6 185//7 186//7
f 186//7 185//7 183//8 184//8
f 184//8 183//8 181//9 182//9
f 182//9 181//9 179//10 180//10
f 180//10 179//10 177//11 178//11
f 178//11 177//11 175//12 176//12
f 176//12 175//12 173//13 174//13
f 174//13 173//13 171//14 172//14
f 172//14 171//14 169//15 170//15
f 170//15 169//15 167//16 168//16
f 168//16 167//16 165//17 166//17
f 166//17 165//17 163//18 164//18
f 164//18 163//18 161//19 162//19
f 162//19 161//19 159//20 160//20
f 160//20 159//20 157//21 158//21
f 158//21 157//21 155//22 156//22
f 156//22 155//22 153//23 154//23
f 154//23 153//23 151//24 152//24
f 152//24 151//24 149//25 150//25
f 148//26 147//26 145//27 146//27
f 148//26 150//25 149//25 147//26
