# Blender 5.0.0
# www.blender.org
mtllib RS2.mtl
o RS2
v 0.016599 -0.159205 -3.466965
v 0.016599 0.969930 -3.466965
v 0.265648 -0.159205 -3.442436
v 0.265648 0.969930 -3.442436
v 0.505126 -0.159205 -3.369792
v 0.505126 0.969930 -3.369792
v 0.725829 -0.159205 -3.251823
v 0.725829 0.969930 -3.251823
v 0.919278 -0.159205 -3.093064
v 0.919278 0.969930 -3.093064
v 1.078037 -0.159205 -2.899615
v 1.078037 0.969930 -2.899615
v 1.196006 -0.159205 -2.678911
v 1.196006 0.969930 -2.678911
v 1.268651 -0.159205 -2.439434
v 1.268651 0.969930 -2.439434
v 1.293180 -0.159205 -2.190386
v 1.293180 0.969930 -2.190386
v 1.268651 -0.159205 -1.941337
v 1.268651 0.969930 -1.941337
v 1.196006 -0.159205 -1.701860
v 1.196006 0.969930 -1.701860
v 1.078037 -0.159205 -1.481156
v 1.078037 0.969930 -1.481156
v 0.919278 -0.159205 -1.287707
v 0.919278 0.969930 -1.287707
v 0.725829 -0.159205 -1.128948
v 0.725829 0.969930 -1.128948
v 0.505125 -0.159205 -1.010979
v 0.505125 0.969930 -1.010979
v 0.265648 -0.159205 -0.938335
v 0.265648 0.969930 -0.938335
v 0.016599 -0.159205 -0.913805
v 0.016599 0.969930 -0.913805
v -0.232450 -0.159205 -0.938335
v -0.232450 0.969930 -0.938335
v -0.471927 -0.159205 -1.010980
v -0.471927 0.969930 -1.010980
v -0.692631 -0.159205 -1.128948
v -0.692631 0.969930 -1.128948
v -0.886080 -0.159205 -1.287708
v -0.886080 0.969930 -1.287708
v -1.044839 -0.159205 -1.481156
v -1.044839 0.969930 -1.481156
v -1.162807 -0.159205 -1.701860
v -1.162807 0.969930 -1.701860
v -1.235452 -0.159205 -1.941338
v -1.235452 0.969930 -1.941338
v -1.259981 -0.159205 -2.190387
v -1.259981 0.969930 -2.190387
v -1.235451 -0.159205 -2.439435
v -1.235451 0.969930 -2.439435
v -1.162806 -0.159205 -2.678913
v -1.162806 0.969930 -2.678913
v -1.044837 -0.159205 -2.899617
v -1.044837 0.969930 -2.899617
v -0.886078 -0.159205 -3.093065
v -0.886078 0.969930 -3.093065
v -0.692629 -0.159205 -3.251824
v -0.692629 0.969930 -3.251824
v -0.471925 -0.159205 -3.369792
v -0.471925 0.969930 -3.369792
v -0.232447 -0.159205 -3.442437
v -0.232447 0.969930 -3.442437
v 0.016599 -1.409933 -2.202853
v 0.016599 2.220659 -2.202853
v 0.019032 -1.409933 -2.202614
v 0.019032 2.220659 -2.202614
v 0.021371 -1.409933 -2.201904
v 0.021371 2.220659 -2.201904
v 0.023526 -1.409933 -2.200752
v 0.023526 2.220659 -2.200752
v 0.025415 -1.409933 -2.199202
v 0.025415 2.220659 -2.199202
v 0.026966 -1.409933 -2.197312
v 0.026966 2.220659 -2.197312
v 0.028118 -1.409933 -2.195157
v 0.028118 2.220659 -2.195157
v 0.028827 -1.409933 -2.192818
v 0.028827 2.220659 -2.192818
v 0.029067 -1.409933 -2.190386
v 0.029067 2.220659 -2.190386
v 0.028827 -1.409933 -2.187953
v 0.028827 2.220659 -2.187953
v 0.028118 -1.409933 -2.185615
v 0.028118 2.220659 -2.185615
v 0.026966 -1.409933 -2.183459
v 0.026966 2.220659 -2.183459
v 0.025415 -1.409933 -2.181570
v 0.025415 2.220659 -2.181570
v 0.023526 -1.409933 -2.180019
v 0.023526 2.220659 -2.180019
v 0.021371 -1.409933 -2.178867
v 0.021371 2.220659 -2.178867
v 0.019032 -1.409933 -2.178158
v 0.019032 2.220659 -2.178158
v 0.016599 -1.409933 -2.177918
v 0.016599 2.220659 -2.177918
v 0.014167 -1.409933 -2.178158
v 0.014167 2.220659 -2.178158
v 0.011828 -1.409933 -2.178867
v 0.011828 2.220659 -2.178867
v 0.009673 -1.409933 -2.180019
v 0.009673 2.220659 -2.180019
v 0.007783 -1.409933 -2.181570
v 0.007783 2.220659 -2.181570
v 0.006233 -1.409933 -2.183459
v 0.006233 2.220659 -2.183459
v 0.005081 -1.409933 -2.185615
v 0.005081 2.220659 -2.185615
v 0.004371 -1.409933 -2.187953
v 0.004371 2.220659 -2.187953
v 0.004132 -1.409933 -2.190386
v 0.004132 2.220659 -2.190386
v 0.004371 -1.409933 -2.192818
v 0.004371 2.220659 -2.192818
v 0.005081 -1.409933 -2.195157
v 0.005081 2.220659 -2.195157
v 0.006233 -1.409933 -2.197312
v 0.006233 2.220659 -2.197312
v 0.007783 -1.409933 -2.199202
v 0.007783 2.220659 -2.199202
v 0.009673 -1.409933 -2.200752
v 0.009673 2.220659 -2.200752
v 0.011828 -1.409933 -2.201904
v 0.011828 2.220659 -2.201904
v 0.014167 -1.409933 -2.202614
v 0.014167 2.220659 -2.202614
v 0.016599 -0.159205 -3.466966
v 0.016599 0.969930 -3.466966
v 0.265648 -0.159205 -3.442436
v 0.265648 0.969930 -3.442436
v 0.505126 -0.159205 -3.369792
v 0.505126 0.969930 -3.369792
v 0.725829 -0.159205 -3.251823
v 0.725829 0.969930 -3.251823
v 0.919278 -0.159205 -3.093064
v 0.919278 0.969930 -3.093064
v 1.078037 -0.159205 -2.899615
v 1.078037 0.969930 -2.899615
v 1.196006 -0.159205 -2.678911
v 1.196006 0.969930 -2.678911
v 1.268651 -0.159205 -2.439434
v 1.268651 0.969930 -2.439434
v 1.293180 -0.159205 -2.190386
v 1.293180 0.969930 -2.190386
v 1.268651 -0.159205 -1.941337
v 1.268651 0.969930 -1.941337
v 1.196006 -0.159205 -1.701860
v 1.196006 0.969930 -1.701860
v 1.078037 -0.159205 -1.481156
v 1.078037 0.969930 -1.481156
v 0.919278 -0.159205 -1.287707
v 0.919278 0.969930 -1.287707
v 0.725829 -0.159205 -1.128948
v 0.725829 0.969930 -1.128948
v 0.505125 -0.159205 -1.010979
v 0.505125 0.969930 -1.010979
v 0.265648 -0.159205 -0.938334
v 0.265648 0.969930 -0.938334
v 0.016599 -0.159205 -0.913805
v 0.016599 0.969930 -0.913805
v -0.232450 -0.159205 -0.938335
v -0.232450 0.969930 -0.938335
v -0.471927 -0.159205 -1.010980
v -0.471927 0.969930 -1.010980
v -0.692631 -0.159205 -1.128948
v -0.692631 0.969930 -1.128948
v -0.886080 -0.159205 -1.287708
v -0.886080 0.969930 -1.287708
v -1.044839 -0.159205 -1.481156
v -1.044839 0.969930 -1.481156
v -1.162807 -0.159205 -1.701860
v -1.162807 0.969930 -1.701860
v -1.235452 -0.159205 -1.941338
v -1.235452 0.969930 -1.941338
v -1.259981 -0.159205 -2.190387
v -1.259981 0.969930 -2.190387
v -1.235451 -0.159205 -2.439435
v -1.235451 0.969930 -2.439435
v -1.162806 -0.159205 -2.678913
v -1.162806 0.969930 -2.678913
v -1.044837 -0.159205 -2.899617
v -1.044837 0.969930 -2.899617
v -0.886078 -0.159205 -3.093065
v -0.886078 0.969930 -3.093065
v -0.692629 -0.159205 -3.251824
v -0.692629 0.969930 -3.251824
v -0.471925 -0.159205 -3.369792
v -0.471925 0.969930 -3.369792
v -0.232447 -0.159205 -3.442437
v -0.232447 0.969930 -3.442437
vn -0.0000 -0.0000 1.0000
vn -0.1951 -0.0000 0.9808
vn -0.3827 -0.0000 0.9239
vn -0.5556 -0.0000 0.8315
vn -0.7071 -0.0000 0.7071
vn -0.8315 -0.0000 0.5556
vn -0.9239 -0.0000 0.3827
vn -0.9808 -0.0000 0.1951
vn -1.0000 -0.0000 -0.0000
vn -0.9808 -0.0000 -0.1951
vn -0.9239 -0.0000 -0.3827
vn -0.8315 -0.0000 -0.5556
vn -0.7071 -0.0000 -0.7071
vn -0.5556 -0.0000 -0.8315
vn -0.3827 -0.0000 -0.9239
vn -0.1951 -0.0000 -0.9808
vn -0.0000 -0.0000 -1.0000
vn 0.1951 -0.0000 -0.9808
vn 0.3827 -0.0000 -0.9239
vn 0.5556 -0.0000 -0.8315
vn 0.7071 -0.0000 -0.7071
vn 0.8315 -0.0000 -0.5556
vn 0.9239 -0.0000 -0.3827
vn 0.9808 -0.0000 -0.1951
vn 1.0000 -0.0000 -0.0000
vn 0.9808 -0.0000 0.1951
vn 0.9239 -0.0000 0.3827
vn 0.8315 -0.0000 0.5556
vn 0.7071 -0.0000 0.7071
vn 0.5556 -0.0000 0.8315
vn 0.3827 -0.0000 0.9239
vn 0.1951 -0.0000 0.9808
vn -0.0000 -0.0127 -0.9999
vn -0.0000 0.0127 -0.9999
vn 0.1951 -0.0127 -0.9807
vn 0.1951 0.0127 -0.9807
vn 0.3827 -0.0127 -0.9238
vn 0.3827 0.0127 -0.9238
vn 0.5555 -0.0127 -0.8314
vn 0.5555 0.0127 -0.8314
vn 0.7071 -0.0127 -0.7071
vn 0.7071 0.0127 -0.7071
vn 0.8314 -0.0127 -0.5555
vn 0.8314 0.0127 -0.5555
vn 0.9238 -0.0127 -0.3827
vn 0.9238 0.0127 -0.3827
vn 0.9807 -0.0127 -0.1951
vn 0.9807 0.0127 -0.1951
vn 0.9999 -0.0127 -0.0000
vn 0.9999 0.0127 -0.0000
vn 0.9807 -0.0127 0.1951
vn 0.9807 0.0127 0.1951
vn 0.9238 -0.0127 0.3827
vn 0.9238 0.0127 0.3827
vn 0.8314 -0.0127 0.5555
vn 0.8314 0.0127 0.5555
vn 0.7071 -0.0127 0.7071
vn 0.7071 0.0127 0.7071
vn 0.5555 -0.0127 0.8314
vn 0.5555 0.0127 0.8314
vn 0.3827 -0.0127 0.9238
vn 0.3827 0.0127 0.9238
vn 0.1951 -0.0127 0.9807
vn 0.1951 0.0127 0.9807
vn -0.0000 -0.0127 0.9999
vn -0.0000 0.0127 0.9999
vn -0.1951 -0.0127 0.9807
vn -0.1951 0.0127 0.9807
vn -0.3827 -0.0127 0.9238
vn -0.3827 0.0127 0.9238
vn -0.5555 -0.0127 0.8314
vn -0.5555 0.0127 0.8314
vn -0.7071 -0.0127 0.7070
vn -0.7071 0.0127 0.7070
vn -0.8314 -0.0127 0.5555
vn -0.8314 0.0127 0.5555
vn -0.9238 -0.0127 0.3827
vn -0.9238 0.0127 0.3827
vn -0.9807 -0.0127 0.1951
vn -0.9807 0.0127 0.1951
vn -0.9999 -0.0127 -0.0000
vn -0.9999 0.0127 -0.0000
vn -0.9807 -0.0127 -0.1951
vn -0.9807 0.0127 -0.1951
vn -0.9238 -0.0127 -0.3827
vn -0.9238 0.0127 -0.3827
vn -0.8314 -0.0127 -0.5555
vn -0.8314 0.0127 -0.5555
vn -0.7070 -0.0127 -0.7071
vn -0.7070 0.0127 -0.7071
vn -0.5555 -0.0127 -0.8314
vn -0.5555 0.0127 -0.8314
vn -0.3827 -0.0127 -0.9238
vn -0.3827 0.0127 -0.9238
vn -0.1951 -0.0127 -0.9807
vn -0.1951 0.0127 -0.9807
s 1
usemtl RS
f 1//1 3//2 4//2 2//1
f 3//2 5//3 6//3 4//2
f 5//3 7//4 8//4 6//3
f 7//4 9//5 10//5 8//4
f 9//5 11//6 12//6 10//5
f 11//6 13//7 14//7 12//6
f 13//7 15//8 16//8 14//7
f 15//8 17//9 18//9 16//8
f 17//9 19//10 20//10 18//9
f 19//10 21//11 22//11 20//10
f 21//11 23//12 24//12 22//11
f 23//12 25//13 26//13 24//12
f 25//13 27//14 28//14 26//13
f 27//14 29//15 30//15 28//14
f 29//15 31//16 32//16 30//15
f 31//16 33//17 34//17 32//16
f 33//17 35//18 36//18 34//17
f 35//18 37//19 38//19 36//18
f 37//19 39//20 40//20 38//19
f 39//20 41//21 42//21 40//20
f 41//21 43//22 44//22 42//21
f 43//22 45//23 46//23 44//22
f 45//23 47//24 48//24 46//23
f 47//24 49//25 50//25 48//24
f 49//25 51//26 52//26 50//25
f 51//26 53//27 54//27 52//26
f 53//27 55//28 56//28 54//27
f 55//28 57//29 58//29 56//28
f 57//29 59//30 60//30 58//29
f 59//30 61//31 62//31 60//30
f 63//32 1//1 2//1 64//32
f 61//31 63//32 64//32 62//31
f 65//33 66//34 68//36 67//35
f 67//35 68//36 70//38 69//37
f 69//37 70//38 72//40 71//39
f 71//39 72//40 74//42 73//41
f 73//41 74//42 76//44 75//43
f 75//43 76//44 78//46 77//45
f 77//45 78//46 80//48 79//47
f 79//47 80//48 82//50 81//49
f 81//49 82//50 84//52 83//51
f 83//51 84//52 86//54 85//53
f 85//53 86//54 88//56 87//55
f 87//55 88//56 90//58 89//57
f 89//57 90//58 92//60 91//59
f 91//59 92//60 94//62 93//61
f 93//61 94//62 96//64 95//63
f 95//63 96//64 98//66 97//65
f 97//65 98//66 100//68 99//67
f 99//67 100//68 102//70 101//69
f 101//69 102//70 104//72 103//71
f 103//71 104//72 106//74 105//73
f 105//73 106//74 108//76 107//75
f 107//75 108//76 110//78 109//77
f 109//77 110//78 112//80 111//79
f 111//79 112//80 114//82 113//81
f 113//81 114//82 116//84 115//83
f 115//83 116//84 118//86 117//85
f 117//85 118//86 120//88 119//87
f 119//87 120//88 122//90 121//89
f 121//89 122//90 124//92 123//91
f 123//91 124//92 126//94 125//93
f 68//36 66//34 128//96 126//94 124//92 122//90 120//88 118//86 116//84 114//82 112//80 110//78 108//76 106//74 104//72 102//70 100//68 98//66 96//64 94//62 92//60 90//58 88//56 86//54 84//52 82//50 80//48 78//46 76//44 74//42 72//40 70//38
f 127//95 128//96 66//34 65//33
f 125//93 126//94 128//96 127//95
f 65//33 67//35 69//37 71//39 73//41 75//43 77//45 79//47 81//49 83//51 85//53 87//55 89//57 91//59 93//61 95//63 97//65 99//67 101//69 103//71 105//73 107//75 109//77 111//79 113//81 115//83 117//85 119//87 121//89 123//91 125//93 127//95
f 129//17 130//17 132//18 131//18
f 131//18 132//18 134//19 133//19
f 133//19 134//19 136//20 135//20
f 135//20 136//20 138//21 137//21
f 137//21 138//21 140//22 139//22
f 139//22 140//22 142//23 141//23
f 141//23 142//23 144//24 143//24
f 143//24 144//24 146//25 145//25
f 145//25 146//25 148//26 147//26
f 147//26 148//26 150//27 149//27
f 149//27 150//27 152//28 151//28
f 151//28 152//28 154//29 153//29
f 153//29 154//29 156//30 155//30
f 155//30 156//30 158//31 157//31
f 157//31 158//31 160//32 159//32
f 159//32 160//32 162//1 161//1
f 161//1 162//1 164//2 163//2
f 163//2 164//2 166//3 165//3
f 165//3 166//3 168//4 167//4
f 167//4 168//4 170//5 169//5
f 169//5 170//5 172//6 171//6
f 171//6 172//6 174//7 173//7
f 173//7 174//7 176//8 175//8
f 175//8 176//8 178//9 177//9
f 177//9 178//9 180//10 179//10
f 179//10 180//10 182//11 181//11
f 181//11 182//11 184//12 183//12
f 183//12 184//12 186//13 185//13
f 185//13 186//13 188//14 187//14
f 187//14 188//14 190//15 189//15
f 191//16 192//16 130//17 129//17
f 189//15 190//15 192//16 191//16
