# Blender 5.0.0
# www.blender.org
mtllib ET.mtl
o ET
v 0.410573 0.554252 -2.102915
v 0.408646 0.554367 -2.100569
v 0.409102 0.554191 -2.098424
v 0.412007 0.553515 -2.096450
v 0.408174 0.700131 -2.100253
v 0.408152 0.695118 -2.100247
v 0.410110 0.695507 -2.102318
v 0.410127 0.700400 -2.102327
v 0.409543 0.698334 -2.093156
v 0.412099 0.698183 -2.092006
v 0.412035 0.693215 -2.092014
v 0.409505 0.693320 -2.093139
v 0.417302 0.553084 -2.100620
v 0.415924 0.553568 -2.102843
v 0.413174 0.553282 -2.096644
v 0.416633 0.552974 -2.099232
v 0.415496 0.694898 -2.101629
v 0.416974 0.694407 -2.099068
v 0.416935 0.699287 -2.099020
v 0.415454 0.699796 -2.101580
v 0.412588 0.693338 -2.092299
v 0.412623 0.698297 -2.092245
v 0.415658 0.698961 -2.095750
v 0.415601 0.694077 -2.095784
v 0.409831 0.820611 -2.101021
v 0.411332 0.820284 -2.102357
v 0.414308 0.819605 -2.094381
v 0.411156 0.819840 -2.096702
v 0.414088 0.819361 -2.101126
v 0.417064 0.819132 -2.097816
v 0.417419 0.819377 -2.096719
v 0.415729 0.819711 -2.094389
vn -0.3543 0.0037 -0.9351
vn -0.9666 -0.0026 -0.2562
vn -0.7961 -0.0193 0.6048
vn -0.0767 -0.0320 0.9965
vn -0.9619 0.0093 -0.2734
vn -0.9632 0.0014 -0.2688
vn -0.3561 0.0035 -0.9344
vn -0.2991 0.0040 -0.9542
vn -0.7962 0.0157 0.6049
vn -0.0871 0.0097 0.9961
vn -0.0627 -0.0183 0.9979
vn -0.7962 -0.0065 0.6050
vn 0.9997 0.0022 -0.0226
vn 0.5671 0.0079 -0.8236
vn 0.5110 -0.0230 0.8593
vn 0.8190 -0.0096 0.5737
vn 0.5412 0.0087 -0.8408
vn 0.9978 0.0032 -0.0662
vn 0.9896 0.0022 -0.1437
vn 0.5492 0.0072 -0.8357
vn 0.5534 -0.0172 0.8327
vn 0.5391 -0.0031 0.8422
vn 0.8780 -0.0083 0.4786
vn 0.8364 -0.0093 0.5480
vn -0.9601 0.0133 -0.2792
vn -0.3439 0.0048 -0.9390
vn -0.2047 0.0236 0.9785
vn -0.8264 0.0246 0.5626
vn 0.5171 0.0050 -0.8559
vn 0.9807 -0.0002 -0.1954
vn 0.8923 -0.0079 0.4514
vn 0.4877 0.0044 0.8730
s 1
usemtl ZT.001
f 5//5 8//8 7//7 6//6
f 9//9 12//12 11//11 10//10
f 17//17 20//20 19//19 18//18
f 21//21 24//24 23//23 22//22
f 5//5 6//6 12//12 9//9
f 3//3 4//4 11//11 12//12
f 7//7 8//8 20//20 17//17
f 10//10 11//11 21//21 22//22
f 19//19 20//20 29//29 30//30
f 22//22 23//23 31//31 32//32
f 1//1 2//2 6//6 7//7
f 13//13 14//14 17//17 18//18
f 8//8 5//5 25//25 26//26
f 15//15 16//16 24//24 21//21
f 18//18 19//19 23//23 24//24
f 9//9 10//10 27//27 28//28
f 14//14 1//1 7//7 17//17
f 6//6 2//2 3//3 12//12
f 4//4 15//15 21//21 11//11
f 25//25 5//5 9//9 28//28
f 20//20 8//8 26//26 29//29
f 10//10 22//22 32//32 27//27
f 13//13 18//18 24//24 16//16
f 19//19 30//30 31//31 23//23
