# Blender 5.0.0
# www.blender.org
mtllib RS2.mtl
o RS2
v -0.098431 -0.156377 -2.579983
v -0.098431 0.952705 -2.579983
v -0.023516 -0.156377 -2.572605
v -0.023516 0.952705 -2.572605
v 0.048521 -0.156377 -2.550753
v 0.048521 0.952705 -2.550753
v 0.114910 -0.156377 -2.515267
v 0.114910 0.952705 -2.515267
v 0.173100 -0.156377 -2.467511
v 0.173100 0.952705 -2.467511
v 0.220856 -0.156377 -2.409321
v 0.220856 0.952705 -2.409321
v 0.256341 -0.156377 -2.342932
v 0.256341 0.952705 -2.342932
v 0.278193 -0.156377 -2.270896
v 0.278193 0.952705 -2.270896
v 0.285572 -0.156377 -2.195981
v 0.285572 0.952705 -2.195981
v 0.278193 -0.156377 -2.121065
v 0.278193 0.952705 -2.121065
v 0.256341 -0.156377 -2.049029
v 0.256341 0.952705 -2.049029
v 0.220856 -0.156377 -1.982640
v 0.220856 0.952705 -1.982640
v 0.173100 -0.156377 -1.924450
v 0.173100 0.952705 -1.924450
v 0.114910 -0.156377 -1.876694
v 0.114910 0.952705 -1.876694
v 0.048521 -0.156377 -1.841208
v 0.048521 0.952705 -1.841208
v -0.023516 -0.156377 -1.819356
v -0.023516 0.952705 -1.819356
v -0.098431 -0.156377 -1.811978
v -0.098431 0.952705 -1.811978
v -0.173346 -0.156377 -1.819356
v -0.173346 0.952705 -1.819356
v -0.245382 -0.156377 -1.841208
v -0.245382 0.952705 -1.841208
v -0.311771 -0.156377 -1.876694
v -0.311771 0.952705 -1.876694
v -0.369962 -0.156377 -1.924450
v -0.369962 0.952705 -1.924450
v -0.417717 -0.156377 -1.982640
v -0.417717 0.952705 -1.982640
v -0.453203 -0.156377 -2.049029
v -0.453203 0.952705 -2.049029
v -0.475055 -0.156377 -2.121066
v -0.475055 0.952705 -2.121066
v -0.482433 -0.156377 -2.195981
v -0.482433 0.952705 -2.195981
v -0.475055 -0.156377 -2.270896
v -0.475055 0.952705 -2.270896
v -0.453203 -0.156377 -2.342932
v -0.453203 0.952705 -2.342932
v -0.417717 -0.156377 -2.409321
v -0.417717 0.952705 -2.409321
v -0.369961 -0.156377 -2.467512
v -0.369961 0.952705 -2.467512
v -0.311771 -0.156377 -2.515267
v -0.311771 0.952705 -2.515267
v -0.245382 -0.156377 -2.550753
v -0.245382 0.952705 -2.550753
v -0.173345 -0.156377 -2.572605
v -0.173345 0.952705 -2.572605
v -0.098431 -0.156377 -2.579983
v -0.098431 0.952705 -2.579983
v -0.023516 -0.156377 -2.572605
v -0.023516 0.952705 -2.572605
v 0.048521 -0.156377 -2.550753
v 0.048521 0.952705 -2.550753
v 0.114910 -0.156377 -2.515267
v 0.114910 0.952705 -2.515267
v 0.173100 -0.156377 -2.467511
v 0.173100 0.952705 -2.467511
v 0.220856 -0.156377 -2.409321
v 0.220856 0.952705 -2.409321
v 0.256341 -0.156377 -2.342932
v 0.256341 0.952705 -2.342932
v 0.278193 -0.156377 -2.270896
v 0.278193 0.952705 -2.270896
v 0.285572 -0.156377 -2.195981
v 0.285572 0.952705 -2.195981
v 0.278193 -0.156377 -2.121065
v 0.278193 0.952705 -2.121065
v 0.256342 -0.156377 -2.049029
v 0.256342 0.952705 -2.049029
v 0.220856 -0.156377 -1.982640
v 0.220856 0.952705 -1.982640
v 0.173100 -0.156377 -1.924450
v 0.173100 0.952705 -1.924450
v 0.114910 -0.156377 -1.876694
v 0.114910 0.952705 -1.876694
v 0.048521 -0.156377 -1.841208
v 0.048521 0.952705 -1.841208
v -0.023516 -0.156377 -1.819356
v -0.023516 0.952705 -1.819356
v -0.098431 -0.156377 -1.811978
v -0.098431 0.952705 -1.811978
v -0.173346 -0.156377 -1.819356
v -0.173346 0.952705 -1.819356
v -0.245382 -0.156377 -1.841208
v -0.245382 0.952705 -1.841208
v -0.311771 -0.156377 -1.876694
v -0.311771 0.952705 -1.876694
v -0.369962 -0.156377 -1.924450
v -0.369962 0.952705 -1.924450
v -0.417717 -0.156377 -1.982640
v -0.417717 0.952705 -1.982640
v -0.453203 -0.156377 -2.049029
v -0.453203 0.952705 -2.049029
v -0.475055 -0.156377 -2.121066
v -0.475055 0.952705 -2.121066
v -0.482433 -0.156377 -2.195981
v -0.482433 0.952705 -2.195981
v -0.475055 -0.156377 -2.270896
v -0.475055 0.952705 -2.270896
v -0.453203 -0.156377 -2.342932
v -0.453203 0.952705 -2.342932
v -0.417717 -0.156377 -2.409321
v -0.417717 0.952705 -2.409321
v -0.369961 -0.156377 -2.467512
v -0.369961 0.952705 -2.467512
v -0.311771 -0.156377 -2.515267
v -0.311771 0.952705 -2.515267
v -0.245382 -0.156377 -2.550753
v -0.245382 0.952705 -2.550753
v -0.173345 -0.156377 -2.572605
v -0.173345 0.952705 -2.572605
v -0.098431 -0.513157 -2.198774
v -0.098431 2.108213 -2.198774
v -0.097886 -0.513157 -2.198720
v -0.097886 2.108213 -2.198720
v -0.097362 -0.513157 -2.198561
v -0.097362 2.108213 -2.198561
v -0.096879 -0.513157 -2.198303
v -0.096879 2.108213 -2.198303
v -0.096456 -0.513157 -2.197955
v -0.096456 2.108213 -2.197955
v -0.096108 -0.513157 -2.197532
v -0.096108 2.108213 -2.197532
v -0.095850 -0.513157 -2.197049
v -0.095850 1.309485 -2.197049
v -0.095691 -0.513157 -2.196525
v -0.095691 2.108213 -2.196525
v -0.095638 -0.513157 -2.195981
v -0.095638 1.309485 -2.195981
v -0.095691 -0.513157 -2.195436
v -0.095691 2.108213 -2.195436
v -0.095850 -0.513157 -2.194912
v -0.095850 1.309485 -2.194912
v -0.096108 -0.513157 -2.194429
v -0.096108 2.108213 -2.194429
v -0.096456 -0.513157 -2.194006
v -0.096456 1.309485 -2.194006
v -0.096879 -0.513157 -2.193658
v -0.096879 2.108213 -2.193658
v -0.097362 -0.513157 -2.193400
v -0.097362 1.309485 -2.193400
v -0.097886 -0.513157 -2.193241
v -0.097886 1.309485 -2.193241
v -0.098431 -0.513157 -2.193187
v -0.098431 1.309485 -2.193187
v -0.098976 -0.513157 -2.193241
v -0.098976 1.309485 -2.193241
v -0.099500 -0.513157 -2.193400
v -0.099500 2.108213 -2.193400
v -0.099982 -0.513157 -2.193658
v -0.099982 2.108213 -2.193658
v -0.100406 -0.513157 -2.194006
v -0.100406 2.108213 -2.194006
v -0.100753 -0.513157 -2.194429
v -0.100753 1.309485 -2.194429
v -0.101011 -0.513157 -2.194912
v -0.101011 2.108213 -2.194912
v -0.101170 -0.513157 -2.195436
v -0.101170 2.108213 -2.195436
v -0.101224 -0.513157 -2.195981
v -0.101224 1.309485 -2.195981
v -0.101170 -0.513157 -2.196525
v -0.101170 1.309485 -2.196525
v -0.101011 -0.513157 -2.197049
v -0.101011 2.108213 -2.197049
v -0.100753 -0.513157 -2.197532
v -0.100753 2.108213 -2.197532
v -0.100406 -0.513157 -2.197955
v -0.100406 2.108213 -2.197955
v -0.099982 -0.513157 -2.198303
v -0.099982 1.309485 -2.198303
v -0.099500 -0.513157 -2.198561
v -0.099500 2.108213 -2.198561
v -0.098976 -0.513157 -2.198720
v -0.098976 2.108213 -2.198720
vn -0.0000 -0.0000 1.0000
vn -0.1951 -0.0000 0.9808
vn -0.3827 -0.0000 0.9239
vn -0.5556 -0.0000 0.8315
vn -0.7071 -0.0000 0.7071
vn -0.8315 -0.0000 0.5556
vn -0.9239 -0.0000 0.3827
vn -0.9808 -0.0000 0.1951
vn -1.0000 -0.0000 -0.0000
vn -0.9808 -0.0000 -0.1951
vn -0.9239 -0.0000 -0.3827
vn -0.8315 -0.0000 -0.5556
vn -0.7071 -0.0000 -0.7071
vn -0.5556 -0.0000 -0.8315
vn -0.3827 -0.0000 -0.9239
vn -0.1951 -0.0000 -0.9808
vn -0.0000 -0.0000 -1.0000
vn 0.1951 -0.0000 -0.9808
vn 0.3827 -0.0000 -0.9239
vn 0.5556 -0.0000 -0.8315
vn 0.7071 -0.0000 -0.7071
vn 0.8315 -0.0000 -0.5556
vn 0.9239 -0.0000 -0.3827
vn 0.9808 -0.0000 -0.1951
vn 1.0000 -0.0000 -0.0000
vn 0.9808 -0.0000 0.1951
vn 0.9239 -0.0000 0.3827
vn 0.8315 -0.0000 0.5556
vn 0.7071 -0.0000 0.7071
vn 0.5556 -0.0000 0.8315
vn 0.3827 -0.0000 0.9239
vn 0.1951 -0.0000 0.9808
vn -0.0000 -0.0135 -0.9999
vn 0.2825 0.0277 -0.9589
vn 0.1951 -0.0135 -0.9807
vn 0.6937 0.0222 -0.7199
vn 0.3826 -0.0135 -0.9238
vn 0.8907 0.0173 -0.4543
vn 0.5555 -0.0135 -0.8314
vn 0.9740 0.0139 -0.2261
vn 0.7070 -0.0135 -0.7070
vn 0.9994 0.0115 -0.0330
vn 0.8314 -0.0135 -0.5555
vn 0.9944 0.0111 0.1050
vn 0.9238 -0.0135 -0.3826
vn 0.9280 0.0002 -0.3726
vn 0.9807 -0.0135 -0.1951
vn 0.8986 0.0082 0.4386
vn 0.9999 -0.0135 -0.0000
vn 0.9999 0.0002 0.0111
vn 0.9807 -0.0135 0.1951
vn 0.7622 0.0069 0.6473
vn 0.9238 -0.0135 0.3826
vn 0.9201 0.0002 0.3916
vn 0.8314 -0.0135 0.5555
vn 0.5889 0.0062 0.8082
vn 0.7070 -0.0135 0.7070
vn 0.7023 0.0002 0.7119
vn 0.5555 -0.0135 0.8314
vn 0.3886 0.0058 0.9214
vn 0.3826 -0.0135 0.9238
vn 0.3588 0.0027 0.9334
vn 0.1951 -0.0135 0.9807
vn 0.1715 0.0055 0.9852
vn -0.0000 -0.0135 0.9999
vn 0.0559 0.0055 0.9984
vn -0.1951 -0.0135 0.9807
vn -0.1545 0.0028 0.9880
vn -0.3826 -0.0135 0.9238
vn -0.2223 0.0059 0.9750
vn -0.5555 -0.0135 0.8314
vn -0.2919 0.0058 0.9564
vn -0.7070 -0.0135 0.7070
vn -0.3398 0.0062 0.9405
vn -0.8314 -0.0135 0.5555
vn -0.8258 0.0002 0.5639
vn -0.9238 -0.0135 0.3826
vn -0.6432 0.0074 0.7657
vn -0.9807 -0.0135 0.1951
vn -0.6487 0.0074 0.7610
vn -0.9999 -0.0135 -0.0000
vn -0.9593 0.0034 0.2822
vn -0.9807 -0.0135 -0.1951
vn -0.9996 0.0036 0.0268
vn -0.9238 -0.0135 -0.3826
vn -0.9505 0.0119 0.3103
vn -0.8314 -0.0135 -0.5555
vn -0.9858 0.0124 0.1673
vn -0.7070 -0.0135 -0.7070
vn -0.9922 0.0145 0.1240
vn -0.5555 -0.0135 -0.8314
vn -0.5597 0.0002 -0.8287
vn -0.3826 -0.0135 -0.9238
vn -0.6437 0.0322 -0.7646
vn -0.1951 -0.0135 -0.9807
vn -0.3188 0.0292 -0.9474
s 1
usemtl RS
f 1//1 3//2 4//2 2//1
f 3//2 5//3 6//3 4//2
f 5//3 7//4 8//4 6//3
f 7//4 9//5 10//5 8//4
f 9//5 11//6 12//6 10//5
f 11//6 13//7 14//7 12//6
f 13//7 15//8 16//8 14//7
f 15//8 17//9 18//9 16//8
f 17//9 19//10 20//10 18//9
f 19//10 21//11 22//11 20//10
f 21//11 23//12 24//12 22//11
f 23//12 25//13 26//13 24//12
f 25//13 27//14 28//14 26//13
f 27//14 29//15 30//15 28//14
f 29//15 31//16 32//16 30//15
f 31//16 33//17 34//17 32//16
f 33//17 35//18 36//18 34//17
f 35//18 37//19 38//19 36//18
f 37//19 39//20 40//20 38//19
f 39//20 41//21 42//21 40//20
f 41//21 43//22 44//22 42//21
f 43//22 45//23 46//23 44//22
f 45//23 47//24 48//24 46//23
f 47//24 49//25 50//25 48//24
f 49//25 51//26 52//26 50//25
f 51//26 53//27 54//27 52//26
f 53//27 55//28 56//28 54//27
f 55//28 57//29 58//29 56//28
f 57//29 59//30 60//30 58//29
f 59//30 61//31 62//31 60//30
f 63//32 1//1 2//1 64//32
f 61//31 63//32 64//32 62//31
f 65//17 66//17 68//18 67//18
f 67//18 68//18 70//19 69//19
f 69//19 70//19 72//20 71//20
f 71//20 72//20 74//21 73//21
f 73//21 74//21 76//22 75//22
f 75//22 76//22 78//23 77//23
f 77//23 78//23 80//24 79//24
f 79//24 80//24 82//25 81//25
f 81//25 82//25 84//26 83//26
f 83//26 84//26 86//27 85//27
f 85//27 86//27 88//28 87//28
f 87//28 88//28 90//29 89//29
f 89//29 90//29 92//30 91//30
f 91//30 92//30 94//31 93//31
f 93//31 94//31 96//32 95//32
f 95//32 96//32 98//1 97//1
f 97//1 98//1 100//2 99//2
f 99//2 100//2 102//3 101//3
f 101//3 102//3 104//4 103//4
f 103//4 104//4 106//5 105//5
f 105//5 106//5 108//6 107//6
f 107//6 108//6 110//7 109//7
f 109//7 110//7 112//8 111//8
f 111//8 112//8 114//9 113//9
f 113//9 114//9 116//10 115//10
f 115//10 116//10 118//11 117//11
f 117//11 118//11 120//12 119//12
f 119//12 120//12 122//13 121//13
f 121//13 122//13 124//14 123//14
f 123//14 124//14 126//15 125//15
f 127//16 128//16 66//17 65//17
f 125//15 126//15 128//16 127//16
f 129//33 130//34 132//36 131//35
f 131//35 132//36 134//38 133//37
f 133//37 134//38 136//40 135//39
f 135//39 136//40 138//42 137//41
f 137//41 138//42 140//44 139//43
f 139//43 140//44 142//46 141//45
f 141//45 142//46 144//48 143//47
f 143//47 144//48 146//50 145//49
f 145//49 146//50 148//52 147//51
f 147//51 148//52 150//54 149//53
f 149//53 150//54 152//56 151//55
f 151//55 152//56 154//58 153//57
f 153//57 154//58 156//60 155//59
f 155//59 156//60 158//62 157//61
f 157//61 158//62 160//64 159//63
f 159//63 160//64 162//66 161//65
f 161//65 162//66 164//68 163//67
f 163//67 164//68 166//70 165//69
f 165//69 166//70 168//72 167//71
f 167//71 168//72 170//74 169//73
f 169//73 170//74 172//76 171//75
f 171//75 172//76 174//78 173//77
f 173//77 174//78 176//80 175//79
f 175//79 176//80 178//82 177//81
f 177//81 178//82 180//84 179//83
f 179//83 180//84 182//86 181//85
f 181//85 182//86 184//88 183//87
f 183//87 184//88 186//90 185//89
f 185//89 186//90 188//92 187//91
f 187//91 188//92 190//94 189//93
f 132//36 130//34 192//96 190//94 188//92 186//90 184//88 182//86 180//84 178//82 176//80 174//78 172//76 170//74 168//72 166//70 164//68 162//66 160//64 158//62 156//60 154//58 152//56 150//54 148//52 146//50 144//48 142//46 140//44 138//42 136//40 134//38
f 191//95 192//96 130//34 129//33
f 189//93 190//94 192//96 191//95
f 129//33 131//35 133//37 135//39 137//41 139//43 141//45 143//47 145//49 147//51 149//53 151//55 153//57 155//59 157//61 159//63 161//65 163//67 165//69 167//71 169//73 171//75 173//77 175//79 177//81 179//83 181//85 183//87 185//89 187//91 189//93 191//95
