# Blender 5.0.0
# www.blender.org
mtllib RS1.mtl
o RSA
v -0.044104 -0.822623 -0.484607
v -0.044104 1.195481 -0.484607
v 0.058955 -0.822623 -0.474457
v 0.058955 1.195481 -0.474457
v 0.158053 -0.822623 -0.444396
v 0.158053 1.195481 -0.444396
v 0.249383 -0.822623 -0.395579
v 0.249383 1.195481 -0.395579
v 0.329434 -0.822623 -0.329883
v 0.329434 1.195481 -0.329883
v 0.395131 -0.822623 -0.249832
v 0.395131 1.195481 -0.249832
v 0.443947 -0.822623 -0.158502
v 0.443947 1.195481 -0.158502
v 0.474008 -0.822623 -0.059404
v 0.474008 1.195481 -0.059404
v 0.484159 -0.822623 0.043655
v 0.484159 1.195481 0.043655
v 0.474008 -0.822623 0.146714
v 0.474008 1.195481 0.146714
v 0.443947 -0.822623 0.245813
v 0.443947 1.195481 0.245813
v 0.395131 -0.822623 0.337142
v 0.395131 1.195481 0.337142
v 0.329434 -0.822623 0.417194
v 0.329434 1.195481 0.417194
v 0.249383 -0.822623 0.482890
v 0.249383 1.195481 0.482890
v 0.158053 -0.822623 0.531707
v 0.158053 1.195481 0.531707
v 0.058955 -0.822623 0.561768
v 0.058955 1.195481 0.561768
v -0.044104 -0.822623 0.571918
v -0.044104 1.195481 0.571918
v -0.147163 -0.822623 0.561768
v -0.147163 1.195481 0.561768
v -0.246262 -0.822623 0.531707
v -0.246262 1.195481 0.531707
v -0.337591 -0.822623 0.482890
v -0.337591 1.195481 0.482890
v -0.417642 -0.822623 0.417193
v -0.417642 1.195481 0.417193
v -0.483339 -0.822623 0.337142
v -0.483339 1.195481 0.337142
v -0.532155 -0.822623 0.245812
v -0.532155 1.195481 0.245812
v -0.562217 -0.822623 0.146714
v -0.562217 1.195481 0.146714
v -0.572367 -0.822623 0.043655
v -0.572367 1.195481 0.043655
v -0.562216 -0.822623 -0.059404
v -0.562216 1.195481 -0.059404
v -0.532155 -0.822623 -0.158503
v -0.532155 1.195481 -0.158503
v -0.483338 -0.822623 -0.249832
v -0.483338 1.195481 -0.249832
v -0.417642 -0.822623 -0.329883
v -0.417642 1.195481 -0.329883
v -0.337590 -0.822623 -0.395580
v -0.337590 1.195481 -0.395580
v -0.246261 -0.822623 -0.444396
v -0.246261 1.195481 -0.444396
v -0.147162 -0.822623 -0.474457
v -0.147162 1.195481 -0.474457
v -0.044104 -1.284173 0.040737
v -0.044104 1.657032 0.040737
v -0.043535 -1.284173 0.040793
v -0.043535 1.657032 0.040793
v -0.042987 -1.284173 0.040959
v -0.042987 1.657032 0.040959
v -0.042483 -1.284173 0.041229
v -0.042483 1.657032 0.041229
v -0.042040 -1.284173 0.041592
v -0.042040 1.657032 0.041592
v -0.041677 -1.284173 0.042034
v -0.041677 1.657032 0.042034
v -0.041408 -1.284173 0.042538
v -0.041408 1.657032 0.042538
v -0.041242 -1.284173 0.043086
v -0.041242 1.657032 0.043086
v -0.041186 -1.284173 0.043655
v -0.041186 1.657032 0.043655
v -0.041242 -1.284173 0.044225
v -0.041242 1.657032 0.044225
v -0.041408 -1.284173 0.044772
v -0.041408 1.657032 0.044772
v -0.041677 -1.284173 0.045277
v -0.041677 1.657032 0.045277
v -0.042040 -1.284173 0.045719
v -0.042040 1.657032 0.045719
v -0.042483 -1.284173 0.046082
v -0.042483 1.657032 0.046082
v -0.042987 -1.284173 0.046352
v -0.042987 1.657032 0.046352
v -0.043535 -1.284173 0.046518
v -0.043535 1.657032 0.046518
v -0.044104 -1.284173 0.046574
v -0.044104 1.657032 0.046574
v -0.044673 -1.284173 0.046518
v -0.044673 1.657032 0.046518
v -0.045221 -1.284173 0.046352
v -0.045221 1.657032 0.046352
v -0.045725 -1.284173 0.046082
v -0.045725 1.657032 0.046082
v -0.046168 -1.284173 0.045719
v -0.046168 1.657032 0.045719
v -0.046531 -1.284173 0.045277
v -0.046531 1.657032 0.045277
v -0.046800 -1.284173 0.044772
v -0.046800 1.657032 0.044772
v -0.046966 -1.284173 0.044225
v -0.046966 1.657032 0.044225
v -0.047022 -1.284173 0.043655
v -0.047022 1.657032 0.043655
v -0.046966 -1.284173 0.043086
v -0.046966 1.657032 0.043086
v -0.046800 -1.284173 0.042538
v -0.046800 1.657032 0.042538
v -0.046531 -1.284173 0.042034
v -0.046531 1.657032 0.042034
v -0.046168 -1.284173 0.041592
v -0.046168 1.657032 0.041592
v -0.045725 -1.284173 0.041229
v -0.045725 1.657032 0.041229
v -0.045221 -1.284173 0.040959
v -0.045221 1.657032 0.040959
v -0.044673 -1.284173 0.040793
v -0.044673 1.657032 0.040793
v -0.044104 -1.284173 0.040737
v -0.044104 1.657032 0.040737
v -0.043535 -1.284173 0.040793
v -0.043535 1.657032 0.040793
v -0.042987 -1.284173 0.040959
v -0.042987 1.657032 0.040959
v -0.042483 -1.284173 0.041229
v -0.042483 1.657032 0.041229
v -0.042040 -1.284173 0.041592
v -0.042040 1.657032 0.041592
v -0.041677 -1.284173 0.042034
v -0.041677 1.657032 0.042034
v -0.041408 -1.284173 0.042538
v -0.041408 1.657032 0.042538
v -0.041242 -1.284173 0.043086
v -0.041242 1.657032 0.043086
v -0.041186 -1.284173 0.043655
v -0.041186 1.657032 0.043655
v -0.041242 -1.284173 0.044225
v -0.041242 1.657032 0.044225
v -0.041408 -1.284173 0.044772
v -0.041408 1.657032 0.044772
v -0.041677 -1.284173 0.045277
v -0.041677 1.657032 0.045277
v -0.042040 -1.284173 0.045719
v -0.042040 1.657032 0.045719
v -0.042483 -1.284173 0.046082
v -0.042483 1.657032 0.046082
v -0.042987 -1.284173 0.046352
v -0.042987 1.657032 0.046352
v -0.043535 -1.284173 0.046518
v -0.043535 1.657032 0.046518
v -0.044104 -1.284173 0.046574
v -0.044104 1.657032 0.046574
v -0.044673 -1.284173 0.046518
v -0.044673 1.657032 0.046518
v -0.045221 -1.284173 0.046352
v -0.045221 1.657032 0.046352
v -0.045725 -1.284173 0.046082
v -0.045725 1.657032 0.046082
v -0.046168 -1.284173 0.045719
v -0.046168 1.657032 0.045719
v -0.046531 -1.284173 0.045277
v -0.046531 1.657032 0.045277
v -0.046800 -1.284173 0.044772
v -0.046800 1.657032 0.044772
v -0.046966 -1.284173 0.044225
v -0.046966 1.657032 0.044225
v -0.047022 -1.284173 0.043655
v -0.047022 1.657032 0.043655
v -0.046966 -1.284173 0.043086
v -0.046966 1.657032 0.043086
v -0.046800 -1.284173 0.042538
v -0.046800 1.657032 0.042538
v -0.046531 -1.284173 0.042034
v -0.046531 1.657032 0.042034
v -0.046168 -1.284173 0.041592
v -0.046168 1.657032 0.041592
v -0.045725 -1.284173 0.041229
v -0.045725 1.657032 0.041229
v -0.045221 -1.284173 0.040959
v -0.045221 1.657032 0.040959
v -0.044673 -1.284173 0.040793
v -0.044673 1.657032 0.040793
vn -0.0000 -0.0000 -1.0000
vn 0.1951 -0.0000 -0.9808
vn 0.3827 -0.0000 -0.9239
vn 0.5556 -0.0000 -0.8315
vn 0.7071 -0.0000 -0.7071
vn 0.8315 -0.0000 -0.5556
vn 0.9239 -0.0000 -0.3827
vn 0.9808 -0.0000 -0.1951
vn 1.0000 -0.0000 -0.0000
vn 0.9808 -0.0000 0.1951
vn 0.9239 -0.0000 0.3827
vn 0.8315 -0.0000 0.5556
vn 0.7071 -0.0000 0.7071
vn 0.5556 -0.0000 0.8315
vn 0.3827 -0.0000 0.9239
vn 0.1951 -0.0000 0.9808
vn -0.0000 -0.0000 1.0000
vn -0.1951 -0.0000 0.9808
vn -0.3827 -0.0000 0.9239
vn -0.5556 -0.0000 0.8315
vn -0.7071 -0.0000 0.7071
vn -0.8315 -0.0000 0.5556
vn -0.9239 -0.0000 0.3827
vn -0.9808 -0.0000 0.1951
vn -1.0000 -0.0000 -0.0000
vn -0.9808 -0.0000 -0.1951
vn -0.9239 -0.0000 -0.3827
vn -0.8315 -0.0000 -0.5556
vn -0.7071 -0.0000 -0.7071
vn -0.5556 -0.0000 -0.8315
vn -0.3827 -0.0000 -0.9239
vn -0.1951 -0.0000 -0.9808
s 1
usemtl RS
f 1//1 2//1 4//2 3//2
f 3//2 4//2 6//3 5//3
f 5//3 6//3 8//4 7//4
f 7//4 8//4 10//5 9//5
f 9//5 10//5 12//6 11//6
f 11//6 12//6 14//7 13//7
f 13//7 14//7 16//8 15//8
f 15//8 16//8 18//9 17//9
f 17//9 18//9 20//10 19//10
f 19//10 20//10 22//11 21//11
f 21//11 22//11 24//12 23//12
f 23//12 24//12 26//13 25//13
f 25//13 26//13 28//14 27//14
f 27//14 28//14 30//15 29//15
f 29//15 30//15 32//16 31//16
f 31//16 32//16 34//17 33//17
f 33//17 34//17 36//18 35//18
f 35//18 36//18 38//19 37//19
f 37//19 38//19 40//20 39//20
f 39//20 40//20 42//21 41//21
f 41//21 42//21 44//22 43//22
f 43//22 44//22 46//23 45//23
f 45//23 46//23 48//24 47//24
f 47//24 48//24 50//25 49//25
f 49//25 50//25 52//26 51//26
f 51//26 52//26 54//27 53//27
f 53//27 54//27 56//28 55//28
f 55//28 56//28 58//29 57//29
f 57//29 58//29 60//30 59//30
f 59//30 60//30 62//31 61//31
f 61//31 62//31 64//32 63//32
f 63//32 64//32 2//1 1//1
f 67//18 69//19 70//19 68//18
f 65//17 67//18 68//18 66//17
f 69//19 71//20 72//20 70//19
f 71//20 73//21 74//21 72//20
f 73//21 75//22 76//22 74//21
f 75//22 77//23 78//23 76//22
f 77//23 79//24 80//24 78//23
f 79//24 81//25 82//25 80//24
f 81//25 83//26 84//26 82//25
f 83//26 85//27 86//27 84//26
f 85//27 87//28 88//28 86//27
f 87//28 89//29 90//29 88//28
f 89//29 91//30 92//30 90//29
f 91//30 93//31 94//31 92//30
f 93//31 95//32 96//32 94//31
f 95//32 97//1 98//1 96//32
f 97//1 99//2 100//2 98//1
f 99//2 101//3 102//3 100//2
f 101//3 103//4 104//4 102//3
f 103//4 105//5 106//5 104//4
f 105//5 107//6 108//6 106//5
f 107//6 109//7 110//7 108//6
f 109//7 111//8 112//8 110//7
f 111//8 113//9 114//9 112//8
f 113//9 115//10 116//10 114//9
f 115//10 117//11 118//11 116//10
f 117//11 119//12 120//12 118//11
f 119//12 121//13 122//13 120//12
f 121//13 123//14 124//14 122//13
f 123//14 125//15 126//15 124//14
f 125//15 127//16 128//16 126//15
f 127//16 65//17 66//17 128//16
f 131//2 132//2 134//3 133//3
f 129//1 130//1 132//2 131//2
f 133//3 134//3 136//4 135//4
f 135//4 136//4 138//5 137//5
f 137//5 138//5 140//6 139//6
f 139//6 140//6 142//7 141//7
f 141//7 142//7 144//8 143//8
f 143//8 144//8 146//9 145//9
f 145//9 146//9 148//10 147//10
f 147//10 148//10 150//11 149//11
f 149//11 150//11 152//12 151//12
f 151//12 152//12 154//13 153//13
f 153//13 154//13 156//14 155//14
f 155//14 156//14 158//15 157//15
f 157//15 158//15 160//16 159//16
f 159//16 160//16 162//17 161//17
f 161//17 162//17 164//18 163//18
f 163//18 164//18 166//19 165//19
f 165//19 166//19 168//20 167//20
f 167//20 168//20 170//21 169//21
f 169//21 170//21 172//22 171//22
f 171//22 172//22 174//23 173//23
f 173//23 174//23 176//24 175//24
f 175//24 176//24 178//25 177//25
f 177//25 178//25 180//26 179//26
f 179//26 180//26 182//27 181//27
f 181//27 182//27 184//28 183//28
f 183//28 184//28 186//29 185//29
f 185//29 186//29 188//30 187//30
f 187//30 188//30 190//31 189//31
f 189//31 190//31 192//32 191//32
f 191//32 192//32 130//1 129//1
