# Blender 5.0.0
# www.blender.org
mtllib ET.mtl
o ZT_parallelisme
v -3.128202 0.061641 -0.027465
v -3.104239 0.054953 -0.027555
v -3.076344 0.059230 -0.027191
v -3.049291 0.058016 -0.027196
v -3.021419 0.039824 -0.027637
v -2.992610 0.047014 -0.028007
v -2.964508 0.051282 -0.028350
v -2.936084 0.038104 -0.028416
v -2.908437 0.043287 -0.028204
v -2.880586 0.042045 -0.027906
v -2.852288 0.043988 -0.027742
v -2.824508 0.038434 -0.027614
v -2.796813 0.031610 -0.027433
v -2.769755 0.031062 -0.027626
v -2.741844 0.020549 -0.027886
v -2.712614 0.020391 -0.028501
v -2.684721 0.017960 -0.028908
v -2.657041 0.021600 -0.029063
v -2.628424 0.008221 -0.029287
v -2.600892 0.012204 -0.029416
v -2.573009 0.010006 -0.029525
v -2.554484 0.013594 -0.029447
v -2.936084 0.028021 -0.018462
v -2.908437 0.033205 -0.018250
v -2.880586 0.031963 -0.017952
v -2.852288 0.033906 -0.017788
v -2.824508 0.028352 -0.017661
v -2.796813 0.021527 -0.017480
v -2.769755 0.020979 -0.017672
v -2.741844 0.010467 -0.017932
v -2.712614 0.010308 -0.018548
v -2.684721 0.007877 -0.018955
v -2.657041 0.011517 -0.019109
v -2.628424 -0.001861 -0.019334
v -2.600892 0.002121 -0.019462
v -2.573009 -0.000077 -0.019572
v -2.554484 0.003511 -0.019494
v -2.554484 0.013594 -0.019494
v -2.573009 0.010006 -0.019572
v -2.600892 0.012204 -0.019462
v -2.628424 0.008221 -0.019334
v -2.657041 0.021600 -0.019109
v -2.684721 0.017960 -0.018955
v -2.712614 0.020391 -0.018548
v -2.741844 0.020549 -0.017932
v -2.769755 0.031062 -0.017672
v -2.796813 0.031610 -0.017480
v -2.824508 0.038434 -0.017661
v -2.852288 0.043988 -0.017788
v -2.880586 0.042045 -0.017952
v -2.908437 0.043287 -0.018250
v -2.936084 0.038104 -0.018462
v -2.964508 0.051282 -0.018397
v -2.992610 0.047014 -0.018054
v -3.021419 0.039824 -0.017683
v -3.049291 0.058016 -0.017242
v -3.076344 0.059230 -0.017238
v -3.104239 0.054953 -0.017602
v -3.128202 0.061641 -0.017512
v -2.554484 0.003511 -0.029447
v -2.573009 -0.000077 -0.029525
v -2.600892 0.002121 -0.029416
v -2.628424 -0.001861 -0.029287
v -2.657041 0.011517 -0.029063
v -2.684721 0.007877 -0.028908
v -2.712614 0.010308 -0.028501
v -2.741844 0.010467 -0.027886
v -2.769755 0.020979 -0.027626
v -2.796813 0.021527 -0.027433
v -2.824508 0.028352 -0.027614
v -3.128202 0.051558 -0.017512
v -3.104239 0.044870 -0.017602
v -2.852288 0.033906 -0.027742
v -2.880586 0.031963 -0.027906
v -2.908437 0.033205 -0.028204
v -2.936084 0.028021 -0.028416
v -2.964508 0.041200 -0.028350
v -3.076344 0.049147 -0.017238
v -3.049291 0.047934 -0.017242
v -3.021419 0.029741 -0.017683
v -2.992610 0.036931 -0.018054
v -2.964508 0.041200 -0.018397
v -2.992610 0.036931 -0.028007
v -3.021419 0.029741 -0.027637
v -3.049291 0.047934 -0.027196
v -3.076344 0.049147 -0.027191
v -3.104239 0.044870 -0.027555
v -3.128202 0.051558 -0.027465
vn -0.0046 -0.0000 1.0000
vn 0.0002 -0.0000 1.0000
vn -0.0107 -0.0000 0.9999
vn 0.0023 -0.0000 1.0000
vn 0.0039 -0.0000 1.0000
vn 0.0211 -0.0000 0.9998
vn 0.0129 -0.0000 0.9999
vn 0.0078 -0.0000 1.0000
vn 0.0122 -0.0000 0.9999
vn 0.0071 -0.0000 1.0000
vn 0.0037 -0.0000 1.0000
vn -0.0065 -0.0000 1.0000
vn -0.0058 -0.0000 1.0000
vn 0.0146 -0.0000 0.9999
vn -0.0130 -0.0000 0.9999
vn -0.0042 -0.0000 1.0000
vn -0.0077 -0.0000 1.0000
vn 0.0093 -0.0000 1.0000
vn 0.0056 -0.0000 1.0000
vn 0.0158 -0.0000 0.9999
vn 0.0047 -0.0000 1.0000
vn 0.0046 -0.0000 -1.0000
vn -0.0002 -0.0000 -1.0000
vn 0.0107 -0.0000 -0.9999
vn -0.0023 -0.0000 -1.0000
vn -0.0039 -0.0000 -1.0000
vn -0.0211 -0.0000 -0.9998
vn -0.0129 -0.0000 -0.9999
vn -0.0078 -0.0000 -1.0000
vn -0.0122 -0.0000 -0.9999
vn -0.0071 -0.0000 -1.0000
vn -0.0037 -0.0000 -1.0000
vn 0.0065 -0.0000 -1.0000
vn 0.0058 -0.0000 -1.0000
vn -0.0146 -0.0000 -0.9999
vn 0.0130 -0.0000 -0.9999
vn 0.0042 -0.0000 -1.0000
vn 0.0077 -0.0000 -1.0000
vn -0.0093 -0.0000 -1.0000
vn -0.0056 -0.0000 -1.0000
vn -0.0158 -0.0000 -0.9999
vn -0.0047 -0.0000 -1.0000
vn -0.1432 0.9897 -0.0000
vn 0.1502 -0.9887 -0.0000
vn 0.0685 -0.9977 -0.0000
vn -1.0000 -0.0000 -0.0000
vn -0.5466 -0.8374 -0.0000
vn 0.0786 0.9969 -0.0000
vn -0.2393 -0.9710 -0.0000
vn -0.2421 0.9702 -0.0000
vn -0.0786 -0.9969 -0.0000
vn 0.1843 -0.9829 -0.0000
vn -0.0685 0.9977 -0.0000
vn -0.3525 -0.9358 -0.0000
vn 0.2688 0.9632 -0.0000
vn 0.5466 0.8374 -0.0000
vn -0.1843 0.9829 -0.0000
vn 0.1304 -0.9915 -0.0000
vn -0.0054 -1.0000 -0.0000
vn -0.1502 0.9887 -0.0000
vn -0.1902 0.9818 -0.0000
vn 0.1961 0.9806 -0.0000
vn -0.0446 -0.9990 -0.0000
vn -0.0448 -0.9990 -0.0000
vn -0.4235 -0.9059 -0.0000
vn -0.1516 0.9884 -0.0000
vn 0.1432 -0.9897 -0.0000
vn -0.2688 -0.9632 -0.0000
vn 0.1516 -0.9884 -0.0000
vn -0.1304 0.9915 -0.0000
vn 0.4206 0.9072 -0.0000
vn 0.0054 1.0000 -0.0000
vn 0.3525 0.9358 -0.0000
vn 0.2421 -0.9702 -0.0000
vn 0.0448 0.9990 -0.0000
vn 1.0000 -0.0000 -0.0000
vn 0.0446 0.9990 -0.0000
vn 0.1902 -0.9818 -0.0000
vn -0.0202 -0.9998 -0.0000
vn -0.4206 -0.9072 -0.0000
vn -0.1961 -0.9806 -0.0000
vn 0.0868 0.9962 -0.0000
vn 0.0202 0.9998 -0.0000
vn -0.0868 -0.9962 -0.0000
vn 0.4235 0.9059 -0.0000
vn 0.2393 0.9710 -0.0000
s 0
usemtl Material.002
f 11//1 73//1 70//1 12//1
f 3//2 86//2 85//2 4//2
f 9//3 75//3 74//3 10//3
f 7//4 77//4 76//4 8//4
f 20//5 62//5 61//5 21//5
f 15//6 67//6 66//6 16//6
f 5//7 84//7 83//7 6//7
f 18//8 64//8 63//8 19//8
f 6//9 83//9 77//9 7//9
f 13//10 69//10 68//10 14//10
f 1//11 88//11 87//11 2//11
f 12//12 70//12 69//12 13//12
f 10//13 74//13 73//13 11//13
f 16//14 66//14 65//14 17//14
f 2//15 87//15 86//15 3//15
f 21//16 61//16 60//16 22//16
f 8//17 76//17 75//17 9//17
f 14//18 68//18 67//18 15//18
f 17//19 65//19 64//19 18//19
f 4//20 85//20 84//20 5//20
f 19//21 63//21 62//21 20//21
f 49//22 48//22 27//22 26//22
f 57//23 56//23 79//23 78//23
f 51//24 50//24 25//24 24//24
f 53//25 52//25 23//25 82//25
f 40//26 39//26 36//26 35//26
f 45//27 44//27 31//27 30//27
f 55//28 54//28 81//28 80//28
f 42//29 41//29 34//29 33//29
f 54//30 53//30 82//30 81//30
f 47//31 46//31 29//31 28//31
f 59//32 58//32 72//32 71//32
f 48//33 47//33 28//33 27//33
f 50//34 49//34 26//34 25//34
f 44//35 43//35 32//35 31//35
f 58//36 57//36 78//36 72//36
f 39//37 38//37 37//37 36//37
f 52//38 51//38 24//38 23//38
f 46//39 45//39 30//39 29//39
f 43//40 42//40 33//40 32//40
f 56//41 55//41 80//41 79//41
f 41//42 40//42 35//42 34//42
f 62//43 63//43 34//43 35//43
f 6//44 7//44 53//44 54//44
f 10//45 11//45 49//45 50//45
f 22//46 60//46 37//46 38//46
f 4//47 5//47 55//47 56//47
f 61//48 62//48 35//48 36//48
f 12//49 13//49 47//49 48//49
f 83//50 84//50 80//50 81//50
f 20//51 21//51 39//51 40//51
f 8//52 9//52 51//52 52//52
f 73//53 74//53 25//53 26//53
f 14//54 15//54 45//54 46//54
f 87//55 88//55 71//55 72//55
f 84//56 85//56 79//56 80//56
f 75//57 76//57 23//57 24//57
f 17//58 18//58 42//58 43//58
f 15//59 16//59 44//59 45//59
f 77//60 83//60 81//60 82//60
f 60//61 61//61 36//61 37//61
f 70//62 73//62 26//62 27//62
f 9//63 10//63 50//63 51//63
f 3//64 4//64 56//64 57//64
f 18//65 19//65 41//65 42//65
f 86//66 87//66 72//66 78//66
f 19//67 20//67 40//67 41//67
f 1//68 2//68 58//68 59//68
f 2//69 3//69 57//69 58//69
f 64//70 65//70 32//70 33//70
f 76//71 77//71 82//71 23//71
f 66//72 67//72 30//72 31//72
f 67//73 68//73 29//73 30//73
f 5//74 6//74 54//74 55//74
f 85//75 86//75 78//75 79//75
f 88//76 1//76 59//76 71//76
f 74//77 75//77 24//77 25//77
f 21//78 22//78 38//78 39//78
f 13//79 14//79 46//79 47//79
f 7//80 8//80 52//80 53//80
f 11//81 12//81 48//81 49//81
f 65//82 66//82 31//82 32//82
f 68//83 69//83 28//83 29//83
f 16//84 17//84 43//84 44//84
f 63//85 64//85 33//85 34//85
f 69//86 70//86 27//86 28//86
